<?xml version="1.0" standalone="no"?>
<!DOCTYPE svg PUBLIC "-//W3C//DTD SVG 1.1//EN" "http://www.w3.org/Graphics/SVG/1.1/DTD/svg11.dtd" >
<svg>
<metadata>
Created by FontForge 20120731 at Thu Aug  4 22:54:51 2016
 By www
Copyright (c) 2011 by Alan Meeks. All rights reserved.
</metadata>
<defs>
<font id="AstoriaSansW00-Light" horiz-adv-x="650" >
  <font-face 
    font-family="AstoriaSansW00-Light"
    font-weight="300"
    font-stretch="normal"
    units-per-em="1000"
    panose-1="0 0 0 0 0 0 0 0 0 0"
    ascent="800"
    descent="-200"
    x-height="477"
    cap-height="699"
    bbox="-293 -268 1022 875"
    underline-thickness="50"
    underline-position="-125"
    unicode-range="U+0020-FB02"
  />
<missing-glyph horiz-adv-x="500" 
d="M125 63h250v602h-250v-602zM63 0v727h375v-727h-375z" />
    <glyph glyph-name=".notdef" horiz-adv-x="500" 
d="M125 63h250v602h-250v-602zM63 0v727h375v-727h-375z" />
    <glyph glyph-name=".null" horiz-adv-x="0" 
 />
    <glyph glyph-name="nonmarkingreturn" horiz-adv-x="333" 
 />
    <glyph glyph-name="space" unicode=" " horiz-adv-x="280" 
 />
    <glyph glyph-name="exclam" unicode="!" horiz-adv-x="383" 
d="M244 46q0 -22 -15 -37.5t-37 -15.5t-37.5 15.5t-15.5 37.5t15.5 37.5t37.5 15.5t37 -15.5t15 -37.5zM237 699l-14 -515h-63l-14 515h91z" />
    <glyph glyph-name="quotedbl" unicode="&#x22;" horiz-adv-x="413" 
d="M188 634q0 -52 -22 -98.5t-69 -71.5l-5 7q31 20 44.5 53.5t13.5 64.5v10.5t-1 10.5q-9 -4 -20 -4q-16 0 -30 9q-19 14 -19 41q0 26 16.5 39t35.5 13q20 0 36 -14q20 -22 20 -60zM333 634q0 -52 -22 -98.5t-69 -71.5l-5 7q31 20 44.5 53.5t13.5 64.5v10.5t-1 10.5
q-9 -4 -20 -4q-16 0 -30 9q-19 14 -19 41q0 26 16.5 39t35.5 13q20 0 36 -14q20 -22 20 -60z" />
    <glyph glyph-name="numbersign" unicode="#" horiz-adv-x="480" 
d="M302 518h-99l-25 -125h99zM430 558l-7 -40h-79l-25 -125h78l-7 -40h-79l-28 -144h-42l28 144h-99l-28 -144h-42l28 144h-78l8 40h78l25 125h-78l7 40h79l28 141h41l-28 -141h100l28 141h41l-27 -141h78z" />
    <glyph glyph-name="dollar" unicode="$" horiz-adv-x="502" 
d="M356 175q0 43 -21.5 70.5t-62.5 56.5v-236q38 10 60 38t24 66v5zM226 632q-37 -8 -58 -33t-22 -61v-2q0 -41 22.5 -68t57.5 -50v214zM427 180q-3 -84 -64 -135q-37 -30 -91 -37v-96h-46v93q-88 1 -150 46v74q32 -32 70 -47t80 -16v269l-14 9q-26 16 -50.5 34t-44 39.5
t-31 48.5t-11.5 61q0 69 41 113.5t110 54.5v80h46v-77q76 -1 127 -36v-68q-34 27 -66.5 36t-60.5 10v-248q39 -24 68 -46.5t48.5 -46t29 -50t9.5 -58.5v-7z" />
    <glyph glyph-name="percent" unicode="%" horiz-adv-x="755" 
d="M284 515q0 72 -23 114t-64 42q-40 0 -63.5 -42t-23.5 -114q0 -73 23.5 -114.5t63.5 -41.5q41 0 64 41.5t23 114.5zM645 188q0 73 -23 114.5t-64 41.5q-40 0 -63.5 -41.5t-23.5 -114.5q0 -72 23.5 -114t63.5 -42q41 0 64 42t23 114zM334 515q0 -45 -10 -81.5t-28 -62.5
t-43 -40t-56 -14t-56 14t-43 40t-28 62.5t-10 81.5q0 44 10 80.5t28 62.5t43 40t56 14t56 -14t43 -40t28 -62.5t10 -80.5zM600 704l-401 -707h-46l402 707h45zM695 188q0 -44 -10 -80.5t-28 -62.5t-43 -40t-56 -14t-56 14t-43 40t-28 62.5t-10 80.5t10 80.5t28 62.5t43 40.5
t56 14.5t56 -14.5t43 -40.5t28 -62.5t10 -80.5z" />
    <glyph glyph-name="ampersand" unicode="&#x26;" horiz-adv-x="652" 
d="M228 344q-29 -17 -47.5 -35t-29.5 -36t-15.5 -36.5t-5.5 -37.5v-6q0 -27 10.5 -53t30 -46t48 -32.5t65.5 -12.5q87 0 150 55zM379 570q0 42 -25.5 67t-60.5 25q-16 0 -32 -5.5t-29.5 -16.5t-23 -28.5t-11.5 -41.5q-1 -4 -1 -7.5v-6.5q0 -42 19 -73.5t42 -59.5l1 -1
q28 15 50.5 30t38 32t24 38t8.5 48zM620 0h-97l-48 56q-38 -31 -89 -49.5t-120 -18.5q-51 0 -91.5 16t-68 43.5t-42 63.5t-14.5 76q0 34 11 63t30.5 54t45 45.5t55.5 37.5q-27 34 -48.5 73.5t-21.5 90.5v7q1 32 13.5 61t35 51t54 35t71.5 13q45 0 74.5 -14t47.5 -35.5
t25 -47t7 -47.5v-3q0 -25 -7.5 -49t-25 -47.5t-47.5 -47t-75 -48.5l186 -217q23 39 35.5 90.5t12.5 116.5v24h70q1 -8 1 -15.5v-15.5q0 -62 -16 -129t-58 -123z" />
    <glyph glyph-name="quotesingle" unicode="'" horiz-adv-x="248" 
d="M178 634q0 -52 -22 -98.5t-69 -71.5l-5 7q31 20 44.5 53.5t13.5 64.5v10.5t-1 10.5q-9 -4 -20 -4q-16 0 -30 9q-19 14 -19 41q0 26 16.5 39t35.5 13q20 0 36 -14q20 -22 20 -60z" />
    <glyph glyph-name="parenleft" unicode="(" horiz-adv-x="292" 
d="M250 -124q-44 41 -78.5 93.5t-58 112.5t-36 126.5t-12.5 135.5t12.5 135.5t36 127t58 113t78.5 93.5h27q-67 -101 -101.5 -215.5t-34.5 -253.5t34.5 -253.5t101.5 -214.5h-27z" />
    <glyph glyph-name="parenright" unicode=")" horiz-adv-x="292" 
d="M227 344q0 -69 -12.5 -135.5t-36 -126.5t-58 -112.5t-77.5 -93.5h-28q67 100 101.5 214.5t34.5 253.5t-34.5 253.5t-101.5 215.5h28q43 -41 77.5 -93.5t58 -113t36 -127t12.5 -135.5z" />
    <glyph glyph-name="asterisk" unicode="*" horiz-adv-x="443" 
d="M276 513l-21 -38l-98 72h-1v-1l13 -120h-44l14 121v0h-1l-98 -72l-22 38l111 49h1l-1 1l-111 49l22 38l98 -72l1 -1v1l-14 121h44l-13 -121v-1l1 1l98 72l21 -38l-111 -49l-1 -1h1z" />
    <glyph glyph-name="plus" unicode="+" horiz-adv-x="550" 
d="M505 219h-201v-219h-58v219h-201v57h201v219h58v-219h201v-57z" />
    <glyph glyph-name="comma" unicode="," horiz-adv-x="232" 
d="M172 22q0 -49 -26.5 -85.5t-68.5 -51.5l-5 7q30 14 44.5 39.5t14.5 55.5v11q-9 -4 -21 -4q-18 0 -30 9q-20 14 -20 43q0 26 17 39.5t36 13.5q22 0 37 -15q11 -10 16.5 -26t5.5 -36z" />
    <glyph glyph-name="hyphen" unicode="-" horiz-adv-x="390" 
d="M330 252h-270v67h270v-67z" />
    <glyph glyph-name="period" unicode="." horiz-adv-x="226" 
d="M166 46q0 -22 -15.5 -37t-37.5 -15t-37.5 15t-15.5 37t15.5 37.5t37.5 15.5t37.5 -15.5t15.5 -37.5z" />
    <glyph glyph-name="slash" unicode="/" horiz-adv-x="308" 
d="M308 720l-250 -742h-58l250 742h58z" />
    <glyph glyph-name="zero" unicode="0" horiz-adv-x="580" 
d="M459 350q0 72 -12 128.5t-34.5 95.5t-53.5 59.5t-69 20.5t-69.5 -20.5t-53.5 -59.5t-34 -95.5t-12 -128.5q0 -143 46 -223t123 -80q38 0 69 20.5t53.5 59.5t34.5 95.5t12 127.5zM535 350q0 -83 -18 -150t-50.5 -114.5t-77.5 -73.5t-99 -26t-99 26t-77.5 73.5t-50.5 114.5
t-18 150t18 150.5t50.5 115t77.5 73.5t99 26t99 -26t77.5 -73.5t50.5 -115t18 -150.5z" />
    <glyph glyph-name="one" unicode="1" horiz-adv-x="355" 
d="M255 0h-73v632l-142 -48v55l201 67h14v-706z" />
    <glyph glyph-name="two" unicode="2" horiz-adv-x="512" 
d="M448 0h-398v27q45 44 98 95t99 109.5t77 123.5t31 137v16q-2 40 -15 67t-33 44t-44.5 24.5t-49.5 7.5q-39 0 -78.5 -18t-74.5 -52l-8 63q31 30 75 49t98 19q31 0 66 -10.5t65 -34.5t51 -63t23 -96v-12q0 -60 -20.5 -117t-56 -112t-83 -106.5t-101.5 -100.5h279v-60z" />
    <glyph glyph-name="three" unicode="3" horiz-adv-x="464" 
d="M409 192q0 -47 -15.5 -85.5t-43.5 -66t-67.5 -43t-86.5 -15.5q-45 0 -78.5 8t-67.5 27l5 64q37 -25 72 -31.5t65 -6.5q62 0 102 37.5t40 104.5q0 29 -8.5 54t-26.5 43q-24 26 -64.5 38.5t-93.5 12.5v56q103 0 147 48q32 34 32 86q0 60 -36 93.5t-100 33.5q-59 0 -114 -33
l-5 56q27 18 63.5 28t75.5 10q42 0 76.5 -12.5t60 -36t39.5 -56t14 -71.5q0 -28 -8 -55t-26 -49.5t-46 -39.5t-67 -26q46 -7 77.5 -26t50 -43.5t26.5 -52t8 -51.5z" />
    <glyph glyph-name="four" unicode="4" horiz-adv-x="513" 
d="M313 581l-202 -299h202v299zM483 282v-63h-98v-219h-72v219h-288v29l308 455h52v-421h98z" />
    <glyph glyph-name="five" unicode="5" horiz-adv-x="508" 
d="M443 210q0 -48 -17.5 -89.5t-48 -72t-72.5 -48t-91 -17.5q-85 0 -139 39l6 66q31 -23 62.5 -34t68.5 -11q71 0 113 44.5t42 120.5q0 38 -12.5 69.5t-37.5 51.5q-44 39 -123 39q-20 0 -41.5 -2.5t-44.5 -7.5l16 341h285v-62h-218l-11 -209q9 1 17.5 1.5t17.5 0.5
q55 0 97 -16.5t71 -45.5t44.5 -69.5t15.5 -88.5z" />
    <glyph glyph-name="six" unicode="6" horiz-adv-x="525" 
d="M403 195q0 71 -37 109q-34 37 -95 37h-3q-34 -1 -71.5 -22t-63.5 -63v-8q0 -51 12 -91.5t35 -67.5q37 -43 93 -43h2q56 0 90 37q38 41 38 112zM480 201q0 -53 -18 -93.5t-47.5 -68t-66 -41.5t-73.5 -14q-96 0 -154 66.5t-65 181.5q-1 9 -1 17v16q0 91 26 164.5
t69.5 129.5t99.5 95t116 62l33 -56q-39 -15 -81.5 -40t-80.5 -64.5t-66.5 -96.5t-38.5 -135q33 43 77 61t89 18q35 0 69 -14.5t60 -40.5q26 -28 39.5 -65t13.5 -82z" />
    <glyph glyph-name="seven" unicode="7" horiz-adv-x="521" 
d="M466 699l-303 -717l-67 28l266 627h-307v62h411z" />
    <glyph glyph-name="eight" unicode="8" horiz-adv-x="526" 
d="M404 187q0 30 -11 56t-30 45.5t-44.5 30.5t-55.5 11t-55.5 -11t-44.5 -30.5t-30 -45.5t-11 -56t11 -56.5t30 -46t44.5 -30.5t55.5 -11t55.5 11t44.5 30.5t30 46t11 56.5zM387 525q0 28 -10 52.5t-26.5 42.5t-39.5 28.5t-48 10.5q-26 0 -48.5 -10.5t-39 -28.5t-26.5 -42.5
t-10 -52.5t10 -52.5t26.5 -43t39 -29t48.5 -10.5q25 0 48 10.5t39.5 29t26.5 43t10 52.5zM479 183q0 -43 -16.5 -79.5t-45.5 -63t-68.5 -41.5t-85.5 -15t-85.5 15t-68.5 41.5t-45.5 63t-16.5 79.5q0 63 32 110t89 70q-28 13 -47 31.5t-31 40t-17 44t-5 45.5q0 41 15 75.5
t41 60t61.5 40t77.5 14.5t77.5 -14.5t61.5 -40t41 -60t15 -75.5q0 -45 -22.5 -89.5t-77.5 -71.5q57 -23 89 -70t32 -110z" />
    <glyph glyph-name="nine" unicode="9" horiz-adv-x="530" 
d="M397 454q0 50 -12 90t-35 66q-37 42 -94 42h-1q-56 0 -90 -36q-39 -41 -39 -110q0 -67 38 -107q34 -36 94 -36h3q35 1 72.5 21.5t63.5 62.5v7zM475 437q0 -89 -25.5 -163t-68 -131.5t-99 -98t-118.5 -62.5l-33 55q39 15 81.5 41.5t80.5 68t66.5 99t38.5 134.5
q-33 -42 -77 -60t-89 -18q-35 0 -69.5 14.5t-59.5 40.5q-53 55 -53 144q0 51 18 90.5t47.5 66.5t66 41t73.5 14q47 0 86 -17t67.5 -48.5t45.5 -76.5t20 -101q0 -8 0.5 -16.5t0.5 -16.5z" />
    <glyph glyph-name="colon" unicode=":" horiz-adv-x="224" 
d="M164 46q0 -22 -15 -37.5t-37 -15.5t-37 15.5t-15 37.5t15 37t37 15t37 -15t15 -37zM164 301q0 -22 -15 -37.5t-37 -15.5t-37 15.5t-15 37.5t15 37t37 15t37 -15t15 -37z" />
    <glyph glyph-name="semicolon" unicode=";" horiz-adv-x="230" 
d="M170 22q0 -49 -25.5 -85.5t-67.5 -51.5l-5 7q30 14 44 39.5t14 55.5v11q-9 -4 -20 -4q-20 0 -30 9q-20 14 -20 42q0 26 16.5 40t36.5 14q21 0 36 -15q21 -21 21 -62zM164 301q0 -22 -15 -37.5t-37 -15.5q-21 0 -36.5 15.5t-15.5 37.5t15.5 37t36.5 15q22 0 37 -15t15 -37
z" />
    <glyph glyph-name="less" unicode="&#x3c;" horiz-adv-x="557" 
d="M507 -12l-457 218v51l457 218v-65l-382 -178l382 -179v-65z" />
    <glyph glyph-name="equal" unicode="=" horiz-adv-x="560" 
d="M510 121h-460v58h460v-58zM510 302h-460v58h460v-58z" />
    <glyph glyph-name="greater" unicode="&#x3e;" horiz-adv-x="557" 
d="M507 206l-457 -218v65l382 178l-382 179v65l457 -218v-51z" />
    <glyph glyph-name="question" unicode="?" horiz-adv-x="427" 
d="M241 46q0 -22 -15.5 -37.5t-37.5 -15.5t-37 15.5t-15 37.5t15 37.5t37 15.5t37.5 -15.5t15.5 -37.5zM372 561q0 -31 -7 -55.5t-18.5 -46t-26.5 -41t-32 -41.5q-23 -30 -36.5 -54.5t-21 -46t-9.5 -42t-2 -42.5v-8h-62q-1 8 -1.5 15t-0.5 14q0 52 17 97t54 92
q38 49 52.5 84.5t14.5 66.5q0 15 -4.5 32.5t-16 33t-32 25.5t-51.5 10q-32 0 -59 -11.5t-52 -31.5l-8 61q18 17 53.5 31t77.5 14q28 0 59 -6.5t57 -26.5q24 -20 39.5 -49t15.5 -74z" />
    <glyph glyph-name="at" unicode="@" horiz-adv-x="759" 
d="M484 450q-7 17 -23.5 30.5t-45.5 15.5h-3q-15 0 -35 -6.5t-40.5 -22t-38.5 -41.5t-28 -64q-5 -17 -6.5 -32t-1.5 -28q0 -45 21 -65.5t49 -20.5q34 0 64.5 22t51.5 52zM709 417q0 -67 -16 -115t-40.5 -78.5t-55 -44.5t-59.5 -14h-2q-23 1 -38.5 9t-25.5 20t-14.5 25
t-4.5 24q-36 -44 -70.5 -58.5t-67.5 -14.5q-17 0 -36.5 7t-36 22t-27.5 40t-11 61q0 27 9 63q9 39 29.5 71t47.5 55.5t58.5 36t63.5 12.5h3q29 0 51.5 -10.5t32.5 -31.5l12 40h50l-54 -238q-5 -20 -5 -33q0 -51 41 -56h6q15 0 33 7.5t35 29.5t29 62t15 106v12q0 45 -13.5 89
t-43 79t-75.5 56.5t-111 21.5q-72 0 -129.5 -31.5t-97.5 -82.5t-61.5 -114t-21.5 -126q0 -64 18 -116.5t52 -90.5t83 -59t111 -21q59 0 97.5 13t60.5 24l9 -44q-29 -15 -68.5 -27t-103.5 -12q-72 0 -130.5 22.5t-100 65.5t-64 105t-22.5 141q0 84 29.5 156t80 124.5
t118 82.5t143.5 30q67 0 120 -21t90.5 -59.5t57.5 -93t20 -121.5z" />
    <glyph glyph-name="A" unicode="A" 
d="M443 277l-131 314l-120 -314h251zM638 0h-79l-91 218h-301l-86 -218h-69l280 699h53z" />
    <glyph glyph-name="B" unicode="B" horiz-adv-x="558" 
d="M434 196q0 27 -8.5 52t-27 44.5t-49 31.5t-74.5 12h-117v-280h117q44 0 74.5 12t49 31.5t27 44.5t8.5 52zM394 516q0 25 -8.5 48t-25.5 40.5t-44 28t-64 10.5h-94v-254h94q37 0 64 10.5t44 28t25.5 40.5t8.5 48zM513 191q0 -30 -12.5 -64t-39.5 -62t-70 -46.5t-104 -18.5
h-204v699h182q56 0 94 -15.5t61.5 -40t33.5 -54.5t10 -59q0 -26 -6 -50.5t-18.5 -45.5t-32.5 -36.5t-48 -24.5q76 -16 115 -63t39 -119z" />
    <glyph glyph-name="C" unicode="C" horiz-adv-x="655" 
d="M620 39q-38 -26 -90.5 -41t-116.5 -15q-79 0 -145.5 27t-115 76t-75.5 116t-27 147q0 79 27 146.5t75.5 116t115 76t145.5 27.5q64 0 116 -14.5t91 -40.5v-77q-45 35 -97 51.5t-115 16.5q-60 0 -111 -22.5t-88 -63t-58 -95.5t-21 -121t21 -121.5t58 -96t88 -63t111 -22.5
q63 0 115 16t97 51v-74z" />
    <glyph glyph-name="D" unicode="D" horiz-adv-x="696" 
d="M562 349q0 50 -15 101t-49 92.5t-89 68t-134 26.5h-118v-575l118 -1q79 0 134 26.5t89 68t49 92.5t15 101zM641 349q0 -63 -21 -125.5t-64 -112t-109 -80.5t-156 -31h-208v699h208q90 0 156 -31t109 -80.5t64 -112.5t21 -126z" />
    <glyph glyph-name="E" unicode="E" horiz-adv-x="507" 
d="M459 0h-376v699h367v-62h-293v-253h283v-59h-283v-263h302v-62z" />
    <glyph glyph-name="F" unicode="F" horiz-adv-x="491" 
d="M443 637h-285v-253h275v-59h-275v-325h-75v699h360v-62z" />
    <glyph glyph-name="G" unicode="G" horiz-adv-x="706" 
d="M641 35q-49 -26 -108 -39.5t-121 -13.5q-81 0 -147.5 27.5t-114 76t-74 115.5t-26.5 147q0 79 27.5 146.5t76 116t115 76t143.5 27.5q129 0 209 -54v-77q-89 68 -210 68q-60 0 -111.5 -22t-89 -62t-59 -96t-21.5 -123t21.5 -122.5t59.5 -95.5t89.5 -62t111.5 -22
q42 0 80.5 5.5t73.5 18.5v200h-147v59h222v-294z" />
    <glyph glyph-name="H" unicode="H" horiz-adv-x="711" 
d="M628 0h-74v325h-396v-325h-75v699h75v-315h396v315h74v-699z" />
    <glyph glyph-name="I" unicode="I" horiz-adv-x="241" 
d="M158 0h-75v699h75v-699z" />
    <glyph glyph-name="J" unicode="J" horiz-adv-x="327" 
d="M244 181q0 -63 -12.5 -106.5t-47.5 -75.5q-28 -25 -59.5 -33.5t-60.5 -8.5q-10 0 -18.5 0.5t-16.5 1.5l-8 60q8 -1 14.5 -1.5t12.5 -0.5q52 0 85 27q26 23 31.5 57.5t5.5 70.5v527h74v-518z" />
    <glyph glyph-name="K" unicode="K" horiz-adv-x="607" 
d="M592 0h-97l-337 355v-355h-75v699h75v-325l307 325h84l-312 -325z" />
    <glyph glyph-name="L" unicode="L" horiz-adv-x="478" 
d="M448 0h-365v699h74v-639h291v-60z" />
    <glyph glyph-name="M" unicode="M" horiz-adv-x="798" 
d="M715 0h-75l1 579l-231 -357h-27l-228 357v-579h-72v699h82l238 -378l240 378h72v-699z" />
    <glyph glyph-name="N" unicode="N" horiz-adv-x="749" 
d="M666 0h-61l-453 590v-590h-69v699h73l441 -567v567h69v-699z" />
    <glyph glyph-name="O" unicode="O" horiz-adv-x="813" 
d="M683 349q0 66 -21 121t-57.5 95.5t-87.5 63t-111 22.5q-59 0 -109.5 -23t-87.5 -63.5t-58 -95.5t-21 -120t21 -120t58 -95.5t87.5 -63.5t109.5 -23t110 23t88 63.5t58 95.5t21 120zM763 349q0 -68 -23 -134t-68.5 -117.5t-112.5 -83t-155 -31.5q-86 0 -152 32.5
t-111 84.5t-68 117.5t-23 131.5q0 78 27 145.5t75 116.5t113 77t141 28q78 0 143.5 -27.5t113 -76t74 -116t26.5 -147.5z" />
    <glyph glyph-name="P" unicode="P" horiz-adv-x="534" 
d="M410 504q0 64 -35 102.5t-104 38.5h-113v-282h113q69 0 104 38.5t35 102.5zM488 504q0 -45 -15.5 -81.5t-44 -63t-69.5 -40.5t-92 -14h-109v-305h-75v699h184q103 0 162 -52.5t59 -142.5z" />
    <glyph glyph-name="Q" unicode="Q" horiz-adv-x="819" 
d="M686 349q0 66 -21 121t-57.5 95.5t-87.5 63t-111 22.5q-59 0 -109.5 -23t-87.5 -63.5t-58 -95.5t-21 -120t21 -120t58 -95.5t87.5 -63.5t109.5 -23t110 23t88 63.5t58 95.5t21 120zM766 349q0 -65 -21 -128.5t-62.5 -113.5t-104.5 -82.5t-147 -35.5q42 -15 80.5 -27
t77.5 -21.5t80 -17t87 -14.5l-16 -60q-72 12 -153 31t-160 47.5t-150 67.5t-122 91q-52 52 -77 122t-25 141q0 78 27 145.5t75 116.5t113 77t141 28q78 0 143.5 -27.5t113 -76t74 -116t26.5 -147.5z" />
    <glyph glyph-name="R" unicode="R" horiz-adv-x="582" 
d="M383 509q0 63 -37.5 99t-112.5 36h-75v-271h75q75 0 112.5 36t37.5 100zM566 0h-85l-92 158q-30 52 -53.5 83t-44.5 48t-41.5 22.5t-44.5 5.5h-47v-317h-75v699h163q49 0 89 -13.5t68 -38t43 -59t15 -76.5q0 -28 -8.5 -55t-26 -50.5t-44.5 -40.5t-64 -24q25 -9 46 -27
t39 -41.5t33 -50t30 -51.5z" />
    <glyph glyph-name="S" unicode="S" horiz-adv-x="476" 
d="M426 169q-3 -89 -68 -142q-53 -42 -136 -42q-97 0 -166 48v79q36 -36 78 -52t89 -16q57 0 91.5 32t35.5 82v5q0 30 -10 52.5t-29 42t-47.5 38.5t-64.5 42q-27 17 -53 35.5t-46 41.5t-32.5 51t-12.5 64q0 40 14 73.5t40 57t62.5 36.5t81.5 13q87 0 143 -37v-72
q-40 31 -77.5 39.5t-67.5 8.5q-56 0 -88 -28.5t-33 -74.5v-3q0 -26 9 -46t25 -37t37.5 -32t46.5 -31q45 -27 78 -52t55.5 -50.5t33.5 -54t11 -64.5v-7z" />
    <glyph glyph-name="T" unicode="T" horiz-adv-x="542" 
d="M526 637h-217v-637h-74v637h-217v62h508v-62z" />
    <glyph glyph-name="U" unicode="U" horiz-adv-x="707" 
d="M624 272q0 -72 -18.5 -123.5t-55.5 -90.5q-32 -35 -81 -55t-115 -20t-115.5 20t-81.5 55q-37 39 -55.5 90.5t-18.5 123.5v427h74l1 -424q0 -62 13.5 -104t40.5 -70q25 -27 61.5 -41.5t81.5 -14.5t81.5 14.5t62.5 41.5q54 55 54 174v424h71v-427z" />
    <glyph glyph-name="V" unicode="V" horiz-adv-x="635" 
d="M620 699l-287 -706h-28l-290 706h87l220 -563l223 563h75z" />
    <glyph glyph-name="W" unicode="W" horiz-adv-x="1009" 
d="M999 699l-248 -706h-28l-219 570l-218 -570h-31l-245 706h80l188 -553l217 553h23l219 -552l186 552h76z" />
    <glyph glyph-name="X" unicode="X" horiz-adv-x="647" 
d="M635 0h-89l-226 313l-228 -313h-80l268 370l-237 329h94l189 -266l192 266h83l-235 -322z" />
    <glyph glyph-name="Y" unicode="Y" horiz-adv-x="564" 
d="M553 699l-235 -336v-363h-75v362l-232 337h90l185 -270l185 270h82z" />
    <glyph glyph-name="Z" unicode="Z" horiz-adv-x="582" 
d="M537 0h-502v25l383 612h-374v62h484v-26l-386 -612h395v-61z" />
    <glyph glyph-name="bracketleft" unicode="[" horiz-adv-x="342" 
d="M293 -119h-198v938h198v-46h-134v-846h134v-46z" />
    <glyph glyph-name="backslash" unicode="\" horiz-adv-x="308" 
d="M308 -22h-58l-250 742h58z" />
    <glyph glyph-name="bracketright" unicode="]" horiz-adv-x="342" 
d="M247 -119h-198v46h134v846h-134v46h198v-938z" />
    <glyph glyph-name="asciicircum" unicode="^" horiz-adv-x="535" 
d="M485 360h-67l-150 262l-150 -262h-68l189 339h57z" />
    <glyph glyph-name="underscore" unicode="_" horiz-adv-x="500" 
d="M500 -120h-500v40h500v-40z" />
    <glyph glyph-name="grave" unicode="`" horiz-adv-x="171" 
d="M151 526h-37l-94 122h75z" />
    <glyph glyph-name="a" unicode="a" horiz-adv-x="455" 
d="M298 242q-52 -2 -87 -13t-56.5 -28t-30.5 -38t-9 -44q0 -39 23 -60.5t59 -21.5q29 0 56.5 14.5t44.5 41.5v149zM425 2q-14 -8 -31 -11.5t-30 -3.5h-5q-21 2 -37 13t-21 38q-21 -24 -53 -38.5t-74 -14.5q-50 0 -84 25q-20 16 -32.5 42.5t-12.5 56.5q0 52 25 86.5t63 55
t82 29t83 8.5v43q0 48 -21.5 76t-75.5 28q-40 0 -72.5 -15t-56.5 -37v60q21 17 56 33t89 16q28 0 55.5 -7.5t48.5 -24.5t34 -45t13 -70v-271q0 -42 31 -42q11 0 26 6v-36z" />
    <glyph glyph-name="b" unicode="b" horiz-adv-x="534" 
d="M420 247q0 47 -12 84.5t-36 63.5q-39 41 -100 41h-3q-34 0 -65.5 -16t-53.5 -42v-316q21 -11 46.5 -16t50.5 -5q38 0 69.5 14t54 40.5t35.5 63t14 81.5v7zM494 243q-1 -46 -16.5 -91.5t-46 -82.5t-77.5 -60.5t-110 -24.5h-7q-44 0 -85 10t-72 28v677h70v-259
q29 29 64.5 40t70.5 13h8q86 0 140 -56q61 -64 61 -185v-9z" />
    <glyph glyph-name="c" unicode="c" horiz-adv-x="443" 
d="M405 406q-23 15 -51 22.5t-64 7.5q-39 0 -71.5 -15t-56 -41t-36.5 -62t-13 -79t13 -79.5t36.5 -62.5t56 -41t71.5 -15q36 0 64 7.5t51 23.5v-62q-46 -25 -114 -25q-54 0 -100 18.5t-79.5 52.5t-52.5 80.5t-19 102.5t19 102.5t52.5 80.5t79.5 52.5t100 18.5q67 0 114 -26
v-61z" />
    <glyph glyph-name="d" unicode="d" horiz-adv-x="549" 
d="M399 381q-22 27 -53.5 41t-66.5 14q-38 0 -69 -15t-52.5 -41.5t-33 -63t-11.5 -79.5t10.5 -79.5t30.5 -62.5t48.5 -41t65.5 -15q45 0 77.5 21t53.5 59v262zM469 0h-66l-2 57q-26 -34 -59 -50.5t-72 -20.5q-7 -1 -13 -1h-13q-46 0 -83.5 17.5t-64.5 50.5t-41.5 79.5
t-14.5 104.5q0 55 18 101.5t50 81t75.5 54t94.5 19.5q41 0 73 -14t48 -32v252h70v-699z" />
    <glyph glyph-name="e" unicode="e" horiz-adv-x="502" 
d="M389 290q-4 70 -38.5 108.5t-91.5 38.5q-54 0 -92 -38t-49 -109h271zM462 235h-349q1 -87 45 -137t114 -57q6 -1 12 -1h12q38 0 73 11t67 30l9 -54q-36 -23 -78 -33t-91 -10q-52 0 -95.5 18.5t-74.5 52.5t-48.5 81t-17.5 103q0 54 17 100.5t46.5 80.5t69.5 53.5t87 19.5
q45 0 82 -15t63 -44q27 -29 42 -75.5t15 -108.5v-15z" />
    <glyph glyph-name="f" unicode="f" horiz-adv-x="310" 
d="M310 645q-10 6 -23.5 9.5t-26.5 3.5q-14 0 -30.5 -4t-30.5 -18q-16 -15 -24 -38.5t-8 -64.5v-56h117v-56h-117v-421h-70v421h-72v56h72v34q0 64 10.5 100.5t38.5 62.5q40 40 109 40q33 0 55 -10v-59z" />
    <glyph glyph-name="g" unicode="g" horiz-adv-x="516" 
d="M406 -122q0 42 -42 67.5t-115 25.5t-115 -25.5t-42 -67.5q0 -43 42 -68.5t115 -25.5t115 25.5t42 68.5zM357 311q0 24 -8.5 44.5t-23 36t-35 24t-44.5 8.5t-44 -8.5t-34.5 -24t-23 -36t-8.5 -44.5t8.5 -45t23 -36.5t34.5 -24t44 -8.5t44.5 8.5t35 24t23 36.5t8.5 45z
M478 -112q0 -35 -17.5 -63.5t-48 -49t-73 -32t-92.5 -11.5q-52 0 -94 10t-71.5 28.5t-45.5 44.5t-16 58q0 49 36 87t105 50q-29 8 -47 26t-18 47v4q2 22 20 44.5t60 32.5q-59 16 -86 57t-27 89q0 37 14 68t39 53t60 34t77 12h223v-56h-108q17 -11 28.5 -25.5t18.5 -30
t10 -31t3 -28.5q0 -65 -42 -106t-117 -51q-17 -2 -34.5 -5.5t-31.5 -10t-23.5 -17t-9.5 -25.5q0 -19 14.5 -34t55.5 -21q25 -5 55 -10t46 -7q65 -12 101 -45.5t36 -85.5z" />
    <glyph glyph-name="h" unicode="h" horiz-adv-x="538" 
d="M458 0h-70v320q0 52 -24 82.5t-77 30.5q-39 0 -75.5 -25.5t-61.5 -65.5v-342h-70v699h70v-287q33 45 74.5 61.5t87.5 16.5q16 0 41 -5.5t48.5 -23t40 -50t16.5 -86.5v-325z" />
    <glyph glyph-name="i" unicode="i" horiz-adv-x="253" 
d="M162 0h-70v477h70v-477zM173 648q0 -19 -13.5 -32.5t-33.5 -13.5q-19 0 -32.5 13.5t-13.5 32.5q0 20 13.5 33.5t32.5 13.5q20 0 33.5 -13.5t13.5 -33.5z" />
    <glyph glyph-name="j" unicode="j" horiz-adv-x="249" 
d="M158 477l-1 -492q0 -54 -5.5 -95.5t-21.5 -72.5t-45 -51.5t-76 -32.5l-25 48q34 8 54.5 23.5t31.5 38t14.5 52.5t3.5 68v514h70zM169 649q0 -20 -13.5 -33.5t-33.5 -13.5q-19 0 -32.5 13.5t-13.5 33.5q0 19 13.5 32.5t32.5 13.5q20 0 33.5 -13.5t13.5 -32.5z" />
    <glyph glyph-name="k" unicode="k" horiz-adv-x="466" 
d="M466 0h-88l-228 258v-258h-70v699h70v-422l214 200h85l-223 -205z" />
    <glyph glyph-name="l" unicode="l" horiz-adv-x="230" 
d="M150 0h-70v699h70v-699z" />
    <glyph glyph-name="m" unicode="m" horiz-adv-x="836" 
d="M756 0h-71v320q0 53 -22.5 83t-75.5 30q-38 0 -74 -25t-61 -66q1 -5 1 -8.5v-8.5v-325h-71v320q0 53 -22.5 83t-75.5 30q-39 0 -74 -25t-60 -65v-343h-70v477h70v-64q33 44 73 60.5t86 16.5q13 0 31 -3t36.5 -12t35.5 -26t28 -45q37 52 83 69t89 17q16 0 41 -5.5
t47.5 -23t39 -50t16.5 -86.5v-325z" />
    <glyph glyph-name="n" unicode="n" horiz-adv-x="537" 
d="M457 0h-70v320q0 52 -23.5 82.5t-77.5 30.5q-39 0 -75 -25t-61 -65v-343h-70v477h70v-64q33 44 74 60.5t87 16.5q16 0 41 -5.5t48.5 -23t40 -50t16.5 -86.5v-325z" />
    <glyph glyph-name="o" unicode="o" horiz-adv-x="570" 
d="M457 239q0 43 -13 79t-35.5 62.5t-54.5 41.5t-69 15q-38 0 -69.5 -15t-54 -41.5t-35.5 -62.5t-13 -79t13 -79.5t35.5 -62.5t54 -41t69.5 -15q37 0 69 15t54.5 41t35.5 62.5t13 79.5zM530 239q0 -48 -16 -93.5t-47 -81.5t-77 -57.5t-107 -21.5q-52 0 -96.5 19t-77 53
t-51 80.5t-18.5 101.5t18.5 101.5t51.5 80.5t77.5 53t97.5 19t98 -19t77.5 -52.5t51 -80.5t18.5 -102z" />
    <glyph glyph-name="p" unicode="p" horiz-adv-x="537" 
d="M424 246q0 48 -13 85.5t-37 63.5q-19 20 -45.5 30.5t-55.5 10.5h-2q-35 -1 -67 -19t-54 -44v-294q29 -20 55.5 -29t61.5 -9q76 0 115.5 54.5t41.5 144.5v6zM497 243q-1 -46 -14 -91.5t-40.5 -82.5t-71.5 -60.5t-107 -24.5h-5q-34 0 -62.5 8.5t-46.5 22.5v-272h-70v734h68
v-48q29 32 65.5 47t72.5 16q3 1 8 1q44 0 79.5 -14.5t61.5 -41.5q30 -32 46 -78.5t16 -107.5v-8z" />
    <glyph glyph-name="q" unicode="q" horiz-adv-x="549" 
d="M399 381q-22 27 -53.5 41t-66.5 14q-38 0 -69 -15t-52.5 -41.5t-33 -63t-11.5 -79.5t10.5 -79.5t30.5 -62.5t48.5 -41t65.5 -15q45 0 78 21t53 59v262zM469 -257h-70v311q-26 -32 -58.5 -48t-70.5 -20q-7 -1 -13 -1.5t-13 -0.5q-46 0 -83.5 18t-64.5 51t-41.5 79.5
t-14.5 104.5q0 55 18 101.5t49.5 80.5t75 53.5t94.5 19.5q41 0 76.5 -16t54.5 -39l10 40h51v-734z" />
    <glyph glyph-name="r" unicode="r" horiz-adv-x="384" 
d="M348 403q-14 11 -32 17.5t-44 6.5q-17 0 -38.5 -7.5t-40 -28.5t-31 -58t-12.5 -95v-238h-70v476l68 1l1 -91q15 34 34.5 54.5t39 32t36.5 15t28 3.5q26 0 45.5 -7.5t31.5 -18.5z" />
    <glyph glyph-name="s" unicode="s" horiz-adv-x="391" 
d="M346 126q-1 -41 -17.5 -68t-40.5 -43.5t-52.5 -23.5t-54.5 -7q-79 0 -131 32v70q61 -46 133 -46q24 0 41 7t28.5 17.5t17 23.5t6.5 26q1 2 1 8q0 20 -11.5 40t-48.5 39l-81 41q-15 7 -29.5 17.5t-26.5 25t-19 33t-7 42.5v8.5t1 8.5q3 31 18 52.5t36.5 35.5t47 20.5
t49.5 6.5q75 0 119 -29v-63q-48 36 -114 36q-37 0 -59.5 -14t-26.5 -40q-1 -4 -1 -12q0 -24 14 -40.5t36 -27.5q2 -1 13 -6q9 -5 26 -13.5t48 -24.5q17 -9 32.5 -20t27 -26t18.5 -35t7 -46v-5z" />
    <glyph glyph-name="t" unicode="t" horiz-adv-x="351" 
d="M333 13q-24 -14 -50 -21.5t-55 -7.5q-68 0 -103.5 38.5t-35.5 107.5v291h-74v12l144 151v-107h150v-56h-150v-289q0 -41 19.5 -65t56.5 -26h6q25 0 48.5 7t43.5 20v-55z" />
    <glyph glyph-name="u" unicode="u" horiz-adv-x="538" 
d="M458 0h-69v63q-32 -44 -72.5 -60.5t-91.5 -16.5q-17 0 -41.5 5.5t-47.5 23.5t-39.5 50.5t-16.5 86.5v324l70 1v-320q0 -52 24 -82.5t77 -30.5q39 0 77 25.5t59 67.5v340h70z" />
    <glyph glyph-name="v" unicode="v" horiz-adv-x="450" 
d="M439 477l-206 -488h-13l-209 488h80l138 -344l140 344h70z" />
    <glyph glyph-name="w" unicode="w" horiz-adv-x="705" 
d="M694 477l-181 -488h-14l-147 357l-144 -357h-13l-184 488h73l123 -345l139 356h16l142 -356l121 345h69z" />
    <glyph glyph-name="x" unicode="x" horiz-adv-x="472" 
d="M462 0h-84l-144 198l-149 -198h-75l186 249l-166 228h86l123 -170l127 170h76l-165 -221z" />
    <glyph glyph-name="y" unicode="y" horiz-adv-x="454" 
d="M444 477l-309 -733h-70l139 330l-194 403h82l147 -319l135 319h70z" />
    <glyph glyph-name="z" unicode="z" horiz-adv-x="444" 
d="M401 0h-358v16l247 405h-238v56h341v-17l-245 -404h253v-56z" />
    <glyph glyph-name="braceleft" unicode="{" horiz-adv-x="315" 
d="M295 -139q-4 -1 -11 -1q-67 0 -104 36q-40 40 -40 120v126q0 39 -4 70.5t-15 54t-30.5 36.5t-50.5 20v36q31 6 50.5 20.5t30.5 37t15 53.5t4 70v126q0 80 40 120q37 36 104 36h11v-47q-24 0 -41 -6t-29 -17q-14 -15 -20 -39t-6 -63v-112q0 -52 -6 -86.5t-18 -57
t-29.5 -34.5t-39.5 -19q22 -7 39.5 -19t29.5 -34t18 -57t6 -87v-111q0 -40 6 -64t20 -38q23 -23 70 -24v-46z" />
    <glyph glyph-name="bar" unicode="|" horiz-adv-x="198" 
d="M133 -12h-68v762h68v-762z" />
    <glyph glyph-name="braceright" unicode="}" horiz-adv-x="315" 
d="M275 323q-31 -6 -50 -20t-30 -36.5t-15 -54t-4 -70.5v-126q0 -79 -41 -120q-38 -36 -103 -36q-8 0 -12 1v46q49 1 70 24q14 14 20 38t6 64v111q0 52 6 87t18 57t29 34t40 19q-23 7 -40 19t-29 34.5t-18 57t-6 86.5v112q0 39 -6 63t-20 39q-23 23 -70 23v47h12
q65 0 103 -36q41 -41 41 -120v-126q0 -39 4 -70t15 -53.5t30 -37t50 -20.5v-36z" />
    <glyph glyph-name="asciitilde" unicode="~" horiz-adv-x="419" 
d="M369 372q0 -51 -20 -78t-57 -32h-9q-23 0 -49 8t-42 15q-15 5 -35.5 12t-35.5 7h-7q-14 -2 -24.5 -14t-12.5 -32h-27v4v2q0 51 20 78.5t58 32.5h8q23 0 49 -8t43 -15q14 -5 34.5 -12t35.5 -7h7q14 2 24.5 14t12.5 32h27v-5v-2v0z" />
    <glyph glyph-name="uni00A0" unicode="&#xa0;" horiz-adv-x="280" 
 />
    <glyph glyph-name="exclamdown" unicode="&#xa1;" horiz-adv-x="381" 
d="M236 -215h-91l14 515h63zM243 438q0 -22 -15 -37.5t-37 -15.5t-37.5 15.5t-15.5 37.5t15.5 37.5t37.5 15.5t37 -15.5t15 -37.5z" />
    <glyph glyph-name="cent" unicode="&#xa2;" horiz-adv-x="524" 
d="M289 430q-61 -14 -98.5 -65.5t-37.5 -126.5t37.5 -126.5t98.5 -65.5v384zM444 405q-44 29 -112 30v-394q35 1 62 8.5t50 22.5v-62q-48 -25 -112 -25v-95h-43v98q-46 7 -84.5 28t-66 53.5t-43 75.5t-15.5 93t15.5 93t43 75.5t66 53.5t84.5 28v98h43v-95q64 0 112 -25v-61z
" />
    <glyph glyph-name="sterling" unicode="&#xa3;" horiz-adv-x="512" 
d="M467 0h-412v31q21 10 40 27.5t34 40.5t25.5 49.5t14.5 55.5q3 21 3 44q0 20 -2 41t-4 41h-106v47h98q-8 36 -13 70.5t-5 64.5v6q1 34 13.5 68.5t38 62.5t63 45.5t87.5 17.5q31 0 52.5 -4t35 -9t21 -10.5t12.5 -8.5l-9 -61q-19 14 -45.5 23t-59.5 9q-24 0 -47.5 -7.5
t-43 -24t-32 -42t-12.5 -61.5v-5q0 -34 5 -67t11 -67h176v-47h-168q2 -18 3.5 -35.5t1.5 -35.5v-18t-2 -19q-6 -58 -31 -100t-54 -60h311v-62z" />
    <glyph glyph-name="currency" unicode="&#xa4;" horiz-adv-x="662" 
d="M587 633q-62 27 -138 27q-50 0 -93.5 -17t-78 -48.5t-57.5 -75t-33 -96.5h345l-12 -46h-339v-25v-24t2 -24h318l-13 -46h-296q12 -48 36 -87.5t57 -67t74.5 -43t89.5 -15.5q44 0 81 8t71 25v-60q-32 -17 -70 -24.5t-79 -7.5q-64 0 -120 19.5t-100 55.5t-74.5 86
t-44.5 111h-93v46h86q-3 24 -3 48q0 7 0.5 13t0.5 12h-84v46h89q11 66 40.5 120t74.5 93t103 60.5t125 21.5q85 0 150 -27z" />
    <glyph glyph-name="yen" unicode="&#xa5;" horiz-adv-x="573" 
d="M558 699l-218 -312h149v-41h-166v-78h166v-41h-166v-227h-72v227h-167v41h167v78h-167v41h149l-218 312h81l191 -285l192 285h79z" />
    <glyph glyph-name="brokenbar" unicode="&#xa6;" horiz-adv-x="197" 
d="M132 -12h-67v282h67v-282zM132 468h-67v282h67v-282z" />
    <glyph glyph-name="section" unicode="&#xa7;" horiz-adv-x="460" 
d="M338 322q0 24 -8 40t-20 27t-26 17.5t-27 11.5q-8 4 -15 6.5t-13 4.5q-20 -4 -37.5 -11t-30.5 -18t-21 -26.5t-8 -36.5q0 -24 8 -40t20 -27t26 -17.5t27 -11.5q8 -4 15.5 -6.5t12.5 -4.5q39 7 68 29t29 63zM390 335q0 -27 -9 -48t-23.5 -36.5t-32.5 -25.5t-36 -14
q12 -6 26.5 -15t27.5 -23.5t21.5 -35t8.5 -48.5v-8q-2 -35 -18.5 -60t-39.5 -40.5t-50 -22.5t-50 -7q-31 0 -60 6.5t-49 21.5l1 50q17 -13 43.5 -24t59.5 -11q18 0 36.5 4.5t34 15t25.5 27t11 40.5q1 2 1 5q0 21 -7.5 35.5t-19.5 25t-26.5 18t-29.5 13.5q-7 3 -16 7t-18.5 8
t-18 7t-12.5 5q-11 5 -26.5 13t-29.5 22t-24 34.5t-10 49.5q0 27 9 48t23.5 36.5t32.5 25.5t36 14q-12 6 -26.5 15t-27 24t-21 35.5t-8.5 48.5v7q1 36 17 60.5t39.5 40t50.5 22.5t50 7q30 0 57 -7.5t47 -21.5v-48q-17 14 -42 24t-58 10q-18 0 -36.5 -4.5t-33.5 -15t-25 -27
t-11 -40.5v-5q0 -21 7.5 -35.5t19 -25t26.5 -18t30 -13.5q13 -5 34 -14t30 -13q11 -5 26.5 -13t29.5 -22t24 -34.5t10 -49.5z" />
    <glyph glyph-name="dieresis" unicode="&#xa8;" horiz-adv-x="293" 
d="M102 587q0 -18 -11.5 -30.5t-28.5 -12.5t-29.5 12.5t-12.5 30.5t12 30t30 12q17 0 28.5 -12t11.5 -30zM273 587q0 -18 -12 -30.5t-29 -12.5t-29 12.5t-12 30.5t12 30t29 12t29 -12t12 -30z" />
    <glyph glyph-name="copyright" unicode="&#xa9;" horiz-adv-x="815" 
d="M551 166q-24 -17 -56.5 -26t-69.5 -9q-47 0 -86.5 16.5t-68.5 45.5t-45 69t-16 88q0 47 16 87t45 69t68.5 45.5t86.5 16.5q37 0 70 -8.5t56 -24.5v-58q-27 21 -60 33t-68 12t-64 -13t-50 -36t-32.5 -54.5t-11.5 -68.5q0 -38 11.5 -69.5t32.5 -54t50 -35.5t64 -13
q72 0 128 44v-56zM717 350q0 66 -24.5 123.5t-66.5 101t-98 68.5t-120 25t-120.5 -25t-98.5 -68.5t-66 -101t-24 -123.5t24 -124t66 -101.5t98.5 -68.5t120.5 -25t120 25t98 68.5t66.5 101.5t24.5 124zM765 350q0 -74 -28 -139.5t-76.5 -114t-113.5 -76.5t-139 -28
t-139.5 28t-114 76.5t-76.5 114t-28 139.5t28 139t76.5 113.5t114 76.5t139.5 28t139 -28t113.5 -76.5t76.5 -113.5t28 -139z" />
    <glyph glyph-name="ordfeminine" unicode="&#xaa;" horiz-adv-x="316" 
d="M197 536q-115 -6 -115 -78q0 -23 14 -37t37 -14q19 0 36 9.5t28 25.5v94zM286 380q-9 -6 -22 -9t-21 -3q-3 0 -4 1q-31 1 -39 31q-31 -33 -82 -33q-35 0 -57 18q-14 11 -22.5 29t-8.5 38q0 32 14.5 54.5t38.5 37t54 21.5t60 8v25q0 66 -61 66q-29 0 -51.5 -12t-36.5 -26
v47q14 12 38 23t60 11q48 0 75.5 -26t27.5 -74v-178q0 -18 7 -22q4 -3 11 -3t19 5v-29z" />
    <glyph glyph-name="guillemotleft" unicode="&#xab;" horiz-adv-x="522" 
d="M247 0h-62l-135 227l135 227h62l-121 -227zM452 0h-61l-136 227l136 227h61l-121 -227z" />
    <glyph glyph-name="logicalnot" unicode="&#xac;" horiz-adv-x="601" 
d="M551 104h-78v220h-423v78h501v-298z" />
    <glyph glyph-name="registered" unicode="&#xae;" horiz-adv-x="661" 
d="M375 510q0 59 -64 59h-31v-117h31q64 0 64 58zM470 273h-48l-43 75q-13 22 -23.5 36t-19.5 22t-18 10.5t-20 2.5h-18v-146h-42v328h79q47 0 74.5 -24t27.5 -65q0 -22 -13.5 -46t-46.5 -33q17 -9 30 -26t25 -39zM573 434q0 52 -19 97.5t-52 79.5t-77.5 53.5t-94.5 19.5
t-94 -19.5t-77 -53.5t-52 -79.5t-19 -97.5q0 -51 19 -96.5t52 -79.5t77 -53.5t94 -19.5t94.5 19.5t77.5 53.5t52 79.5t19 96.5zM611 434q0 -58 -22 -109t-60.5 -89t-89.5 -60t-109 -22t-109 22t-89 60t-60 89t-22 109t22 109t60 89.5t89 60.5t109 22t109 -22t89.5 -60.5
t60.5 -89.5t22 -109z" />
    <glyph glyph-name="macron" unicode="&#xaf;" horiz-adv-x="294" 
d="M271 557h-248v51h248v-51z" />
    <glyph glyph-name="degree" unicode="&#xb0;" horiz-adv-x="356" 
d="M270 583q0 21 -7 39t-19.5 31.5t-29.5 21t-36 7.5t-36 -7.5t-29.5 -21t-19.5 -31.5t-7 -39t7 -39t19.5 -31.5t29.5 -21t36 -7.5t36 7.5t29.5 21t19.5 31.5t7 39zM306 583q0 -27 -10 -51t-27.5 -41.5t-40.5 -28t-50 -10.5t-50 10.5t-40.5 28t-27.5 41.5t-10 51t10 51
t27.5 41.5t40.5 28t50 10.5t50 -10.5t40.5 -28t27.5 -41.5t10 -51z" />
    <glyph glyph-name="plusminus" unicode="&#xb1;" horiz-adv-x="560" 
d="M510 0h-460v57h460v-57zM510 357h-201v-212h-58v212h-201v58h201v212h52h6v-212h201v-58z" />
    <glyph glyph-name="uni00B2" unicode="&#xb2;" horiz-adv-x="296" 
d="M259 326h-225v22l24 23q24 22 49 47t45.5 52.5t33.5 57.5t13 63v8q-1 25 -10 39t-21 21.5t-23.5 9.5t-17.5 2q-22 0 -45 -11t-41 -31l-6 45q19 18 45 28t53 10q15 0 35 -5t38 -18.5t30.5 -36t12.5 -56.5q0 -56 -32.5 -111t-101.5 -118h144v-41z" />
    <glyph glyph-name="uni00B3" unicode="&#xb3;" horiz-adv-x="275" 
d="M238 432q0 -51 -33.5 -83.5t-86.5 -32.5q-25 0 -45 5t-39 16l4 45q21 -16 41 -20t37 -4q32 0 52 19t20 51q0 31 -18 49q-25 25 -85 25h-1v39q57 0 80 24q16 16 16 42q0 29 -18.5 46t-50.5 17t-65 -21l-4 40q17 11 37.5 16.5t42.5 5.5q48 0 78 -27t30 -71q0 -32 -18 -55
t-50 -34q42 -11 59 -38.5t17 -53.5z" />
    <glyph glyph-name="acute" unicode="&#xb4;" horiz-adv-x="171" 
d="M151 648l-94 -122h-37l56 122h75z" />
    <glyph glyph-name="mu" unicode="&#xb5;" horiz-adv-x="537" 
d="M457 0h-68l1 63q-32 -43 -70.5 -60t-82.5 -17q-19 0 -43 6.5t-44 27.5v-209h-70v666h70v-321q0 -52 24 -82t77 -30q39 0 77 25t59 67v341h70v-477z" />
    <glyph glyph-name="paragraph" unicode="&#xb6;" horiz-adv-x="485" 
d="M412 -50h-48v726h-94v-726h-47v342h-19q-27 0 -59 12t-60 36t-46.5 60.5t-18.5 86.5v3q0 35 10.5 78t44.5 80q64 69 198 69h139v-767z" />
    <glyph glyph-name="periodcentered" unicode="&#xb7;" horiz-adv-x="264" 
d="M184 353q0 -22 -15 -37t-37 -15t-37 15t-15 37t15 37t37 15t37 -15t15 -37z" />
    <glyph glyph-name="cedilla" unicode="&#xb8;" horiz-adv-x="166" 
d="M143 -121q0 -18 -7.5 -31.5t-19.5 -22t-27 -12.5t-30 -4q-20 0 -36 6v19q15 -3 28 -3q26 0 39 13t13 32q0 21 -16 30.5t-36 9.5h-5l27 84l29 -1l-21 -63h1q9 0 19.5 -3t20 -10t15.5 -17.5t6 -26.5z" />
    <glyph glyph-name="uni00B9" unicode="&#xb9;" horiz-adv-x="227" 
d="M161 326h-50v331l-77 -25v40l112 37h15v-383z" />
    <glyph glyph-name="ordmasculine" unicode="&#xba;" horiz-adv-x="388" 
d="M305 537q0 28 -8.5 51t-23 40t-35 26.5t-44.5 9.5t-44 -9.5t-35 -26.5t-23 -40t-8 -51t8 -51t23 -40t35 -26.5t44 -9.5t44.5 9.5t35 26.5t23 40t8.5 51zM358 537q0 -32 -10.5 -62.5t-31 -54.5t-51.5 -38.5t-72 -14.5q-35 0 -65 13t-51.5 35.5t-34 54t-12.5 67.5
t12.5 67.5t34.5 54t52 35.5t65 13q36 0 66 -12.5t51.5 -35t34 -54t12.5 -68.5z" />
    <glyph glyph-name="guillemotright" unicode="&#xbb;" horiz-adv-x="522" 
d="M267 227l-136 -227h-61l121 227l-121 227h61zM472 227l-135 -227h-62l121 227l-121 227h62z" />
    <glyph glyph-name="onequarter" unicode="&#xbc;" horiz-adv-x="575" 
d="M434 297l-95 -138h95v138zM535 116h-52v-116h-49v116h-156l1 22l168 244h36v-223h52v-43zM161 326h-50v331l-77 -25v40l112 37h15v-383zM504 703l-401 -707h-46l402 707h45z" />
    <glyph glyph-name="onehalf" unicode="&#xbd;" horiz-adv-x="634" 
d="M161 326h-50v331l-77 -25v40l112 37h15v-383zM503 703l-401 -707h-46l402 707h45zM588 0h-224v22l24 23q24 22 49 47t45.5 52.5t33.5 57.5t13 63v8q-2 25 -11 39t-21 21.5t-23.5 9.5t-17.5 2q-21 0 -44 -11t-41 -31l-7 45q41 38 99 38q15 0 35 -5t37.5 -18.5t30 -36
t12.5 -56.5q0 -56 -32 -111t-101 -118h143v-41z" />
    <glyph glyph-name="threequarters" unicode="&#xbe;" horiz-adv-x="597" 
d="M455 297l-96 -138h96v138zM556 116h-53v-116h-48v116h-156v22l169 244h35v-223h53v-43zM238 433q0 -52 -33.5 -84.5t-86.5 -32.5q-25 0 -45 5t-39 16l4 45q21 -16 41 -20t37 -4q32 0 52 19.5t20 51.5q0 30 -18 48q-24 25 -85 25h-1v39q57 0 80 24q16 16 16 42
q0 29 -18.5 46t-50.5 17q-31 0 -65 -20l-4 39q17 11 37.5 16.5t42.5 5.5q48 0 78 -27t30 -70q0 -32 -18 -55t-50 -34q21 -6 35.5 -16.5t23.5 -23t13 -26.5t4 -26zM525 703l-402 -707h-45l401 707h46z" />
    <glyph glyph-name="questiondown" unicode="&#xbf;" horiz-adv-x="392" 
d="M347 -187q-18 -16 -53.5 -30t-77.5 -14q-28 0 -59 6.5t-57 26.5q-24 20 -39.5 49t-15.5 74q0 31 7 55.5t18.5 45.5t26.5 41t32 41q23 30 36.5 54.5t21 46t9.5 42t2 42.5v9h63q1 -8 1 -15v-15q0 -51 -17 -96t-54 -92q-38 -49 -52.5 -85t-14.5 -66q0 -15 4.5 -32.5t16 -33
t31.5 -25.5t52 -10t59 11.5t52 31.5zM282 440q0 -22 -15.5 -37.5t-37.5 -15.5t-37.5 15.5t-15.5 37.5t15.5 37.5t37.5 15.5t37.5 -15.5t15.5 -37.5z" />
    <glyph glyph-name="Agrave" unicode="&#xc0;" 
d="M443 277l-131 314l-120 -314h251zM638 0h-79l-91 218h-301l-86 -218h-69l280 699h53zM335 751h-37l-94 121h75z" />
    <glyph glyph-name="Aacute" unicode="&#xc1;" 
d="M443 277l-131 314l-120 -314h251zM638 0h-79l-91 218h-301l-86 -218h-69l280 699h53zM437 872l-94 -121h-37l56 121h75z" />
    <glyph glyph-name="Acircumflex" unicode="&#xc2;" 
d="M443 277l-131 314l-120 -314h251zM638 0h-79l-91 218h-301l-86 -218h-69l280 699h53zM426 739h-33l-76 83l-73 -83h-31l80 123h50z" />
    <glyph glyph-name="Atilde" unicode="&#xc3;" 
d="M443 277l-131 314l-120 -314h251zM638 0h-79l-91 218h-301l-86 -218h-69l280 699h53zM462 839q0 -42 -16.5 -64t-46.5 -26h-7q-19 0 -40.5 6.5t-34.5 11.5q-11 5 -28 11t-30 6q-2 0 -2.5 -0.5t-2.5 -0.5q-12 -2 -20 -11.5t-10 -25.5h-22v3v2q0 42 16.5 64t46.5 26h7
q18 0 39.5 -6.5t35.5 -11.5q11 -5 27.5 -10.5t29.5 -5.5h6q25 3 30 37h22v-3v-2z" />
    <glyph glyph-name="Adieresis" unicode="&#xc4;" 
d="M443 277l-131 314l-120 -314h251zM638 0h-79l-91 218h-301l-86 -218h-69l280 699h53zM275 800q0 -18 -11.5 -30.5t-28.5 -12.5t-29.5 12.5t-12.5 30.5t12 30t30 12q17 0 28.5 -12t11.5 -30zM446 800q0 -18 -12 -30.5t-29 -12.5t-29 12.5t-12 30.5t12 30t29 12t29 -12
t12 -30z" />
    <glyph glyph-name="Aring" unicode="&#xc5;" 
d="M443 277l-131 314l-120 -314h251zM638 0h-79l-91 218h-301l-86 -218h-69l280 699h53zM367 800q0 21 -13.5 36t-33.5 15t-33.5 -15t-13.5 -36q0 -20 13.5 -35.5t33.5 -15.5t33.5 15t13.5 36zM394 800q0 -31 -21.5 -52.5t-52.5 -21.5t-52.5 21.5t-21.5 52.5t21.5 53
t52.5 22t52.5 -22t21.5 -53z" />
    <glyph glyph-name="AE" unicode="&#xc6;" horiz-adv-x="895" 
d="M470 638l-206 -348h206v348zM847 0h-377v231h-241l-137 -231h-80l419 698h407v-61h-293v-253h283v-59h-283v-264h302v-61z" />
    <glyph glyph-name="Ccedilla" unicode="&#xc7;" horiz-adv-x="655" 
d="M620 40q-36 -25 -86 -39.5t-111 -16.5l-19 -57h2q9 0 19.5 -3t20 -9.5t15.5 -17.5t6 -27q0 -18 -7.5 -31.5t-19.5 -22t-27 -12.5t-30 -4q-20 0 -36 6v20q8 -2 15 -3t13 -1q26 0 39 13.5t13 32.5q0 21 -16.5 30t-36.5 9h-5l25 77q-75 3 -138 32t-109 77.5t-71.5 114
t-25.5 142.5q0 79 27 146.5t75.5 116t115 76t145.5 27.5q64 0 116 -14.5t91 -40.5v-77q-45 35 -97 51.5t-115 16.5q-60 0 -111 -22.5t-88 -63t-58 -95.5t-21 -121t21 -121.5t58 -96t88 -63t111 -22.5q63 0 115 16t97 51v-74z" />
    <glyph glyph-name="Egrave" unicode="&#xc8;" horiz-adv-x="507" 
d="M459 0h-376v699h367v-62h-293v-253h283v-59h-283v-263h302v-62zM299 751h-37l-93 121h74z" />
    <glyph glyph-name="Eacute" unicode="&#xc9;" horiz-adv-x="507" 
d="M459 0h-376v699h367v-62h-293v-253h283v-59h-283v-263h302v-62zM382 872l-93 -121h-37l56 121h74z" />
    <glyph glyph-name="Ecircumflex" unicode="&#xca;" horiz-adv-x="507" 
d="M459 0h-376v699h367v-62h-293v-253h283v-59h-283v-263h302v-62zM378 739h-33l-76 83l-74 -83h-31l81 123h50z" />
    <glyph glyph-name="Edieresis" unicode="&#xcb;" horiz-adv-x="507" 
d="M459 0h-376v699h367v-62h-293v-253h283v-59h-283v-263h302v-62zM216 800q0 -18 -11.5 -30.5t-28.5 -12.5t-29.5 12.5t-12.5 30.5t12 30t30 12q17 0 28.5 -12t11.5 -30zM387 800q0 -18 -12 -30.5t-29 -12.5t-29 12.5t-12 30.5t12 30t29 12q18 0 29.5 -12t11.5 -30z" />
    <glyph glyph-name="Igrave" unicode="&#xcc;" horiz-adv-x="241" 
d="M158 0h-75v699h75v-699zM140 751h-37l-94 121h75z" />
    <glyph glyph-name="Iacute" unicode="&#xcd;" horiz-adv-x="241" 
d="M158 0h-75v699h75v-699zM234 872l-94 -121h-37l56 121h75z" />
    <glyph glyph-name="Icircumflex" unicode="&#xce;" horiz-adv-x="241" 
d="M158 0h-75v699h75v-699zM228 739h-32l-77 83l-73 -83h-31l80 123h51z" />
    <glyph glyph-name="Idieresis" unicode="&#xcf;" horiz-adv-x="241" 
d="M158 0h-75v699h75v-699zM76 800q0 -18 -12 -30.5t-29 -12.5t-29.5 12.5t-12.5 30.5t12.5 30t29.5 12t29 -12t12 -30zM246 800q0 -18 -11.5 -30.5t-28.5 -12.5t-29.5 12.5t-12.5 30.5t12 30t30 12q17 0 28.5 -12t11.5 -30z" />
    <glyph glyph-name="Eth" unicode="&#xd0;" horiz-adv-x="708" 
d="M574 349q0 50 -15 101t-49.5 92.5t-89.5 68t-134 26.5h-117v-268h176v-51h-176v-256l117 -1q79 0 134 26.5t89.5 68t49.5 92.5t15 101zM653 349q0 -63 -21 -125.5t-64 -112t-109 -80.5t-156 -31h-209v318h-79v51h79v330h209q90 0 156 -31t109 -80.5t64 -112.5t21 -126z
" />
    <glyph glyph-name="Ntilde" unicode="&#xd1;" horiz-adv-x="749" 
d="M666 0h-61l-453 590v-590h-69v699h73l441 -567v567h69v-699zM520 839q0 -42 -16.5 -64t-46.5 -26h-8q-18 0 -39.5 6.5t-34.5 11.5q-12 5 -28.5 11t-29.5 6q-2 0 -2.5 -0.5t-2.5 -0.5q-12 -2 -20 -11.5t-10 -25.5h-22v3v2q0 42 16.5 64t46.5 26h7q18 0 39.5 -6.5
t34.5 -11.5q12 -5 28.5 -10.5t29.5 -5.5h6q25 3 30 37h22v-3v-2z" />
    <glyph glyph-name="Ograve" unicode="&#xd2;" horiz-adv-x="813" 
d="M683 349q0 66 -21 121t-57.5 95.5t-87.5 63t-111 22.5q-59 0 -109.5 -23t-87.5 -63.5t-58 -95.5t-21 -120t21 -120t58 -95.5t87.5 -63.5t109.5 -23t110 23t88 63.5t58 95.5t21 120zM763 349q0 -68 -23 -134t-68.5 -117.5t-112.5 -83t-155 -31.5q-86 0 -152 32.5
t-111 84.5t-68 117.5t-23 131.5q0 78 27 145.5t75 116.5t113 77t141 28q78 0 143.5 -27.5t113 -76t74 -116t26.5 -147.5zM417 751h-37l-94 121h75z" />
    <glyph glyph-name="Oacute" unicode="&#xd3;" horiz-adv-x="813" 
d="M683 349q0 66 -21 121t-57.5 95.5t-87.5 63t-111 22.5q-59 0 -109.5 -23t-87.5 -63.5t-58 -95.5t-21 -120t21 -120t58 -95.5t87.5 -63.5t109.5 -23t110 23t88 63.5t58 95.5t21 120zM763 349q0 -68 -23 -134t-68.5 -117.5t-112.5 -83t-155 -31.5q-86 0 -152 32.5
t-111 84.5t-68 117.5t-23 131.5q0 78 27 145.5t75 116.5t113 77t141 28q78 0 143.5 -27.5t113 -76t74 -116t26.5 -147.5zM518 872l-94 -121h-37l56 121h75z" />
    <glyph glyph-name="Ocircumflex" unicode="&#xd4;" horiz-adv-x="813" 
d="M683 349q0 66 -21 121t-57.5 95.5t-87.5 63t-111 22.5q-59 0 -109.5 -23t-87.5 -63.5t-58 -95.5t-21 -120t21 -120t58 -95.5t87.5 -63.5t109.5 -23t110 23t88 63.5t58 95.5t21 120zM763 349q0 -68 -23 -134t-68.5 -117.5t-112.5 -83t-155 -31.5q-86 0 -152 32.5
t-111 84.5t-68 117.5t-23 131.5q0 78 27 145.5t75 116.5t113 77t141 28q78 0 143.5 -27.5t113 -76t74 -116t26.5 -147.5zM509 739h-33l-77 83l-73 -83h-31l80 123h51z" />
    <glyph glyph-name="Otilde" unicode="&#xd5;" horiz-adv-x="813" 
d="M683 349q0 66 -21 121t-57.5 95.5t-87.5 63t-111 22.5q-59 0 -109.5 -23t-87.5 -63.5t-58 -95.5t-21 -120t21 -120t58 -95.5t87.5 -63.5t109.5 -23t110 23t88 63.5t58 95.5t21 120zM763 349q0 -68 -23 -134t-68.5 -117.5t-112.5 -83t-155 -31.5q-86 0 -152 32.5
t-111 84.5t-68 117.5t-23 131.5q0 78 27 145.5t75 116.5t113 77t141 28q78 0 143.5 -27.5t113 -76t74 -116t26.5 -147.5zM539 839q0 -42 -16.5 -64t-46.5 -26h-8q-18 0 -39.5 6.5t-34.5 11.5q-12 5 -28.5 11t-29.5 6q-2 0 -2.5 -0.5t-2.5 -0.5q-12 -2 -20 -11.5t-10 -25.5
h-23v3v2q0 42 17 64t47 26h7q18 0 39.5 -6.5t34.5 -11.5q12 -5 28.5 -10.5t29.5 -5.5h6q25 3 30 37h22v-3v-2z" />
    <glyph glyph-name="Odieresis" unicode="&#xd6;" horiz-adv-x="813" 
d="M683 349q0 66 -21 121t-57.5 95.5t-87.5 63t-111 22.5q-59 0 -109.5 -23t-87.5 -63.5t-58 -95.5t-21 -120t21 -120t58 -95.5t87.5 -63.5t109.5 -23t110 23t88 63.5t58 95.5t21 120zM763 349q0 -68 -23 -134t-68.5 -117.5t-112.5 -83t-155 -31.5q-86 0 -152 32.5
t-111 84.5t-68 117.5t-23 131.5q0 78 27 145.5t75 116.5t113 77t141 28q78 0 143.5 -27.5t113 -76t74 -116t26.5 -147.5zM357 800q0 -18 -12 -30.5t-29 -12.5t-29 12.5t-12 30.5t12 30t29 12t29 -12t12 -30zM528 800q0 -18 -12 -30.5t-29 -12.5t-29 12.5t-12 30.5t12 30
t29 12t29 -12t12 -30z" />
    <glyph glyph-name="multiply" unicode="&#xd7;" horiz-adv-x="541" 
d="M481 68l-38 -37l-172 181l-172 -181l-39 37l174 182l-174 183l39 37l172 -181l172 181l38 -37l-173 -183z" />
    <glyph glyph-name="Oslash" unicode="&#xd8;" horiz-adv-x="797" 
d="M560 601q-33 26 -74 39.5t-88 13.5q-59 0 -109.5 -23t-87.5 -63.5t-58 -96t-21 -119.5q0 -63 19.5 -116.5t54.5 -94.5zM675 352q0 64 -19.5 117.5t-54.5 94.5l-365 -460q69 -54 162 -54q59 0 110 23t88 63.5t58 95.5t21 120zM755 352q0 -68 -23 -134t-68.5 -118
t-112.5 -83.5t-155 -31.5q-62 0 -112.5 17t-91.5 46l-60 -75l-42 35l60 75q-54 54 -81 125t-27 144q0 78 27 145t75 116t113 77t141 28q60 0 111.5 -16t94.5 -46l56 71l43 -34l-57 -71q51 -50 80 -118.5t29 -151.5z" />
    <glyph glyph-name="Ugrave" unicode="&#xd9;" horiz-adv-x="707" 
d="M624 272q0 -72 -18.5 -123.5t-55.5 -90.5q-32 -35 -81 -55t-115 -20t-115.5 20t-81.5 55q-37 39 -55.5 90.5t-18.5 123.5v427h74l1 -424q0 -62 13.5 -104t40.5 -70q25 -27 61.5 -41.5t81.5 -14.5t81.5 14.5t62.5 41.5q54 55 54 174v424h71v-427zM377 751h-37l-94 121h75z
" />
    <glyph glyph-name="Uacute" unicode="&#xda;" horiz-adv-x="707" 
d="M624 272q0 -72 -18.5 -123.5t-55.5 -90.5q-32 -35 -81 -55t-115 -20t-115.5 20t-81.5 55q-37 39 -55.5 90.5t-18.5 123.5v427h74l1 -424q0 -62 13.5 -104t40.5 -70q25 -27 61.5 -41.5t81.5 -14.5t81.5 14.5t62.5 41.5q54 55 54 174v424h71v-427zM458 872l-94 -121h-37
l56 121h75z" />
    <glyph glyph-name="Ucircumflex" unicode="&#xdb;" horiz-adv-x="707" 
d="M624 272q0 -72 -18.5 -123.5t-55.5 -90.5q-32 -35 -81 -55t-115 -20t-115.5 20t-81.5 55q-37 39 -55.5 90.5t-18.5 123.5v427h74l1 -424q0 -62 13.5 -104t40.5 -70q25 -27 61.5 -41.5t81.5 -14.5t81.5 14.5t62.5 41.5q54 55 54 174v424h71v-427zM458 739h-33l-77 83
l-73 -83h-31l80 123h51z" />
    <glyph glyph-name="Udieresis" unicode="&#xdc;" horiz-adv-x="707" 
d="M624 272q0 -72 -18.5 -123.5t-55.5 -90.5q-32 -35 -81 -55t-115 -20t-115.5 20t-81.5 55q-37 39 -55.5 90.5t-18.5 123.5v427h74l1 -424q0 -62 13.5 -104t40.5 -70q25 -27 61.5 -41.5t81.5 -14.5t81.5 14.5t62.5 41.5q54 55 54 174v424h71v-427zM296 800
q0 -18 -11.5 -30.5t-28.5 -12.5t-29.5 12.5t-12.5 30.5t12 30t30 12q17 0 28.5 -12t11.5 -30zM467 800q0 -18 -12 -30.5t-29 -12.5t-29 12.5t-12 30.5t12 30t29 12t29 -12t12 -30z" />
    <glyph glyph-name="Yacute" unicode="&#xdd;" horiz-adv-x="564" 
d="M291 699l-235 -336v-363h-75v362l-232 337h90l185 -270l185 270h82zM123 872l-94 -121h-37l56 121h75z" />
    <glyph glyph-name="Thorn" unicode="&#xde;" horiz-adv-x="532" 
d="M403 379q0 64 -35 102t-104 38h-113v-281h113q69 0 104 38.5t35 102.5zM480 379q0 -45 -15 -81.5t-43.5 -63t-69.5 -40.5t-92 -14h-109v-180h-75v699h75v-121h109q51 0 92 -14t69.5 -40.5t43.5 -63t15 -81.5z" />
    <glyph glyph-name="germandbls" unicode="&#xdf;" horiz-adv-x="537" 
d="M492 197q0 -45 -13.5 -83t-38.5 -65.5t-59 -43t-76 -15.5q-14 0 -29 2.5t-29 6.5v58q9 -2 20 -4t23 -2q28 0 52 11t41.5 30.5t27 47t9.5 60.5q0 72 -41 113t-116 41h-5v56q63 0 96 34q32 34 32 90t-31 89.5t-80 33.5q-57 0 -88 -36.5t-31 -102.5v-518h-71v526q0 41 14 76
t39 60t59.5 39t76.5 14t76 -12.5t58 -36t37 -56t13 -72.5q0 -25 -6 -49.5t-18.5 -44.5t-31.5 -35t-46 -22q68 -15 102 -63.5t34 -126.5z" />
    <glyph glyph-name="agrave" unicode="&#xe0;" horiz-adv-x="455" 
d="M298 242q-52 -2 -87 -13t-56.5 -28t-30.5 -38t-9 -44q0 -39 23 -60.5t59 -21.5q29 0 56.5 14.5t44.5 41.5v149zM425 2q-14 -8 -31 -11.5t-30 -3.5h-5q-21 2 -37 13t-21 38q-21 -24 -53 -38.5t-74 -14.5q-50 0 -84 25q-20 16 -32.5 42.5t-12.5 56.5q0 52 25 86.5t63 55
t82 29t83 8.5v43q0 48 -21.5 76t-75.5 28q-40 0 -72.5 -15t-56.5 -37v60q21 17 56 33t89 16q28 0 55.5 -7.5t48.5 -24.5t34 -45t13 -70v-271q0 -42 31 -42q11 0 26 6v-36zM229 526h-37l-94 122h75z" />
    <glyph glyph-name="aacute" unicode="&#xe1;" horiz-adv-x="455" 
d="M298 242q-52 -2 -87 -13t-56.5 -28t-30.5 -38t-9 -44q0 -39 23 -60.5t59 -21.5q29 0 56.5 14.5t44.5 41.5v149zM425 2q-14 -8 -31 -11.5t-30 -3.5h-5q-21 2 -37 13t-21 38q-21 -24 -53 -38.5t-74 -14.5q-50 0 -84 25q-20 16 -32.5 42.5t-12.5 56.5q0 52 25 86.5t63 55
t82 29t83 8.5v43q0 48 -21.5 76t-75.5 28q-40 0 -72.5 -15t-56.5 -37v60q21 17 56 33t89 16q28 0 55.5 -7.5t48.5 -24.5t34 -45t13 -70v-271q0 -42 31 -42q11 0 26 6v-36zM328 648l-94 -122h-37l56 122h75z" />
    <glyph glyph-name="acircumflex" unicode="&#xe2;" horiz-adv-x="455" 
d="M298 242q-52 -2 -87 -13t-56.5 -28t-30.5 -38t-9 -44q0 -39 23 -60.5t59 -21.5q29 0 56.5 14.5t44.5 41.5v149zM425 2q-14 -8 -31 -11.5t-30 -3.5h-5q-21 2 -37 13t-21 38q-21 -24 -53 -38.5t-74 -14.5q-50 0 -84 25q-20 16 -32.5 42.5t-12.5 56.5q0 52 25 86.5t63 55
t82 29t83 8.5v43q0 48 -21.5 76t-75.5 28q-40 0 -72.5 -15t-56.5 -37v60q21 17 56 33t89 16q28 0 55.5 -7.5t48.5 -24.5t34 -45t13 -70v-271q0 -42 31 -42q11 0 26 6v-36zM324 529h-32l-77 83l-73 -83h-31l80 123h51z" />
    <glyph glyph-name="atilde" unicode="&#xe3;" horiz-adv-x="455" 
d="M298 242q-52 -2 -87 -13t-56.5 -28t-30.5 -38t-9 -44q0 -39 23 -60.5t59 -21.5q29 0 56.5 14.5t44.5 41.5v149zM425 2q-14 -8 -31 -11.5t-30 -3.5h-5q-21 2 -37 13t-21 38q-21 -24 -53 -38.5t-74 -14.5q-50 0 -84 25q-20 16 -32.5 42.5t-12.5 56.5q0 52 25 86.5t63 55
t82 29t83 8.5v43q0 48 -21.5 76t-75.5 28q-40 0 -72.5 -15t-56.5 -37v60q21 17 56 33t89 16q28 0 55.5 -7.5t48.5 -24.5t34 -45t13 -70v-271q0 -42 31 -42q11 0 26 6v-36zM340 632q0 -42 -16.5 -64t-46.5 -26h-8q-18 0 -39.5 6.5t-34.5 11.5q-12 5 -28.5 10.5t-29.5 5.5h-5
q-12 -2 -20 -11.5t-10 -25.5h-22v3v1q0 42 16.5 64.5t46.5 26.5h7q18 0 39.5 -6.5t34.5 -11.5q12 -5 28.5 -10.5t29.5 -5.5h6q25 3 30 37h22v-3v-2z" />
    <glyph glyph-name="adieresis" unicode="&#xe4;" horiz-adv-x="455" 
d="M298 242q-52 -2 -87 -13t-56.5 -28t-30.5 -38t-9 -44q0 -39 23 -60.5t59 -21.5q29 0 56.5 14.5t44.5 41.5v149zM425 2q-14 -8 -31 -11.5t-30 -3.5h-5q-21 2 -37 13t-21 38q-21 -24 -53 -38.5t-74 -14.5q-50 0 -84 25q-20 16 -32.5 42.5t-12.5 56.5q0 52 25 86.5t63 55
t82 29t83 8.5v43q0 48 -21.5 76t-75.5 28q-40 0 -72.5 -15t-56.5 -37v60q21 17 56 33t89 16q28 0 55.5 -7.5t48.5 -24.5t34 -45t13 -70v-271q0 -42 31 -42q11 0 26 6v-36zM174 587q0 -18 -12 -30.5t-29 -12.5t-29 12.5t-12 30.5t12 30t29 12t29 -12t12 -30zM344 587
q0 -18 -11.5 -30.5t-28.5 -12.5t-29.5 12.5t-12.5 30.5t12.5 30t29.5 12t28.5 -12t11.5 -30z" />
    <glyph glyph-name="aring" unicode="&#xe5;" horiz-adv-x="455" 
d="M298 242q-52 -2 -87 -13t-56.5 -28t-30.5 -38t-9 -44q0 -39 23 -60.5t59 -21.5q29 0 56.5 14.5t44.5 41.5v149zM425 2q-14 -8 -31 -11.5t-30 -3.5h-5q-21 2 -37 13t-21 38q-21 -24 -53 -38.5t-74 -14.5q-50 0 -84 25q-20 16 -32.5 42.5t-12.5 56.5q0 52 25 86.5t63 55
t82 29t83 8.5v43q0 48 -21.5 76t-75.5 28q-40 0 -72.5 -15t-56.5 -37v60q21 17 56 33t89 16q28 0 55.5 -7.5t48.5 -24.5t34 -45t13 -70v-271q0 -42 31 -42q11 0 26 6v-36zM260 591q0 21 -13.5 36t-33.5 15t-33.5 -15t-13.5 -36t14 -36t33 -15q20 0 33.5 15t13.5 36zM287 591
q0 -31 -21.5 -53t-52.5 -22t-52.5 22t-21.5 53t21.5 53t52.5 22t52.5 -22t21.5 -53z" />
    <glyph glyph-name="ae" unicode="&#xe6;" horiz-adv-x="755" 
d="M316 132q-8 23 -13 47.5t-6 51.5v9q-52 -3 -87 -14t-56 -27.5t-30 -37.5t-9 -44q0 -38 23 -60t59 -22q42 0 74 26t45 71zM641 288q-3 71 -38 109t-91 38q-54 0 -93.5 -38t-46.5 -109h269zM715 249q0 -10 -1 -15h-348q2 -87 45.5 -136.5t113.5 -57.5q6 0 12 -0.5t12 -0.5
q38 0 73 11.5t67 30.5l9 -55q-36 -23 -78 -32.5t-91 -9.5q-60 0 -107.5 24.5t-77.5 67.5q-14 -26 -32.5 -44t-40.5 -29t-45.5 -15.5t-46.5 -4.5q-24 0 -48 6t-41 20q-20 16 -32.5 42t-12.5 56q0 52 25 86.5t62.5 54.5t82 28.5t82.5 9.5v42q0 48 -21.5 76t-75.5 28
q-39 0 -71.5 -15t-56.5 -37v60q20 17 55.5 33t89.5 16q44 0 82 -18.5t55 -65.5q25 39 66 62.5t93 23.5q92 0 145 -58q26 -30 41.5 -76t15.5 -108z" />
    <glyph glyph-name="ccedilla" unicode="&#xe7;" horiz-adv-x="443" 
d="M405 406q-23 15 -51 22.5t-64 7.5q-39 0 -71.5 -15t-56 -41t-36.5 -62.5t-13 -79.5t13 -79t36.5 -62.5t56 -41t71.5 -14.5q36 0 64 7.5t51 22.5v-61q-47 -26 -114 -26l-16 -48h1q9 0 19.5 -3t20 -10t15.5 -17.5t6 -26.5q0 -18 -7.5 -31.5t-19.5 -22t-27 -12.5t-30 -4
q-20 0 -36 6v19q16 -3 28 -3q27 0 39.5 13t12.5 32q0 21 -16 30.5t-36 9.5h-5l22 70q-49 5 -89.5 25.5t-70 53.5t-46 77t-16.5 96q0 56 19 102.5t52.5 80.5t79.5 52.5t100 18.5q68 0 114 -25v-61z" />
    <glyph glyph-name="egrave" unicode="&#xe8;" horiz-adv-x="502" 
d="M389 290q-4 70 -38.5 108.5t-91.5 38.5q-54 0 -92 -38t-49 -109h271zM462 235h-349q1 -87 45 -137t114 -57q6 -1 12 -1h12q38 0 73 11t67 30l9 -54q-36 -23 -78 -33t-91 -10q-52 0 -95.5 18.5t-74.5 52.5t-48.5 81t-17.5 103q0 54 17 100.5t46.5 80.5t69.5 53.5t87 19.5
q45 0 82 -15t63 -44q27 -29 42 -75.5t15 -108.5v-15zM276 526h-37l-94 122h75z" />
    <glyph glyph-name="eacute" unicode="&#xe9;" horiz-adv-x="502" 
d="M389 290q-4 70 -38.5 108.5t-91.5 38.5q-54 0 -92 -38t-49 -109h271zM462 235h-349q1 -87 45 -137t114 -57q6 -1 12 -1h12q38 0 73 11t67 30l9 -54q-36 -23 -78 -33t-91 -10q-52 0 -95.5 18.5t-74.5 52.5t-48.5 81t-17.5 103q0 54 17 100.5t46.5 80.5t69.5 53.5t87 19.5
q45 0 82 -15t63 -44q27 -29 42 -75.5t15 -108.5v-15zM377 648l-94 -122h-37l56 122h75z" />
    <glyph glyph-name="ecircumflex" unicode="&#xea;" horiz-adv-x="502" 
d="M389 290q-4 70 -38.5 108.5t-91.5 38.5q-54 0 -92 -38t-49 -109h271zM462 235h-349q1 -87 45 -137t114 -57q6 -1 12 -1h12q38 0 73 11t67 30l9 -54q-36 -23 -78 -33t-91 -10q-52 0 -95.5 18.5t-74.5 52.5t-48.5 81t-17.5 103q0 54 17 100.5t46.5 80.5t69.5 53.5t87 19.5
q45 0 82 -15t63 -44q27 -29 42 -75.5t15 -108.5v-15zM361 529h-33l-76 83l-74 -83h-31l81 123h50z" />
    <glyph glyph-name="edieresis" unicode="&#xeb;" horiz-adv-x="502" 
d="M389 290q-4 70 -38.5 108.5t-91.5 38.5q-54 0 -92 -38t-49 -109h271zM462 235h-349q1 -87 45 -137t114 -57q6 -1 12 -1h12q38 0 73 11t67 30l9 -54q-36 -23 -78 -33t-91 -10q-52 0 -95.5 18.5t-74.5 52.5t-48.5 81t-17.5 103q0 54 17 100.5t46.5 80.5t69.5 53.5t87 19.5
q45 0 82 -15t63 -44q27 -29 42 -75.5t15 -108.5v-15zM212 587q0 -18 -12 -30.5t-29 -12.5t-29 12.5t-12 30.5t12 30t29 12t29 -12t12 -30zM383 587q0 -18 -12 -30.5t-29 -12.5t-29 12.5t-12 30.5t12 30t29 12t29 -12t12 -30z" />
    <glyph glyph-name="igrave" unicode="&#xec;" horiz-adv-x="230" 
d="M150 0h-70v477h70v-477zM136 526h-37l-94 122h75z" />
    <glyph glyph-name="iacute" unicode="&#xed;" horiz-adv-x="230" 
d="M150 0h-70v477h70v-477zM226 648l-94 -122h-37l56 122h75z" />
    <glyph glyph-name="icircumflex" unicode="&#xee;" horiz-adv-x="230" 
d="M150 0h-70v477h70v-477zM223 529h-32l-77 83l-73 -83h-31l80 123h51z" />
    <glyph glyph-name="idieresis" unicode="&#xef;" horiz-adv-x="230" 
d="M150 0h-70v477h70v-477zM71 587q0 -18 -12 -30.5t-29 -12.5t-29 12.5t-12 30.5t12 30t29 12t29 -12t12 -30zM241 587q0 -18 -11.5 -30.5t-28.5 -12.5t-29.5 12.5t-12.5 30.5t12 30t30 12q17 0 28.5 -12t11.5 -30z" />
    <glyph glyph-name="eth" unicode="&#xf0;" horiz-adv-x="571" 
d="M449 224q0 40 -12.5 74.5t-35 59t-53.5 38.5t-68 14t-68 -14t-53.5 -38.5t-35 -59t-12.5 -74.5q0 -41 12.5 -75t35 -59t53.5 -39t68 -14t68 14t53.5 39t35 59t12.5 75zM531 299q0 -45 -6 -85t-17 -70q-12 -33 -32 -62t-48.5 -50.5t-66 -34.5t-83.5 -13q-51 0 -94.5 18
t-75.5 50t-50 76t-18 96q0 51 18 95t50.5 76t76.5 50t95 18q56 0 100.5 -23t70.5 -63q-6 55 -36 111t-90 99l-103 -67l-27 42l83 54q-54 26 -120 38l32 58q45 -5 83.5 -19t71.5 -34l71 46l27 -43l-54 -35q46 -38 77 -87.5t47 -103.5q10 -33 14 -67.5t4 -69.5z" />
    <glyph glyph-name="ntilde" unicode="&#xf1;" horiz-adv-x="537" 
d="M457 0h-70v320q0 52 -23.5 82.5t-77.5 30.5q-39 0 -75 -25t-61 -65v-343h-70v477h70v-64q33 44 74 60.5t87 16.5q16 0 41 -5.5t48.5 -23t40 -50t16.5 -86.5v-325zM389 632q0 -42 -16.5 -64t-46.5 -26h-8q-18 0 -39.5 6.5t-34.5 11.5q-12 5 -28.5 10.5t-29.5 5.5h-5
q-12 -2 -20 -11.5t-10 -25.5h-23v3v1q0 83 64 91h7q18 0 39.5 -6.5t34.5 -11.5q12 -5 28.5 -10.5t29.5 -5.5h5q26 3 31 37h22v-3v-2z" />
    <glyph glyph-name="ograve" unicode="&#xf2;" horiz-adv-x="570" 
d="M457 239q0 43 -13 79t-35.5 62.5t-54.5 41.5t-69 15q-38 0 -69.5 -15t-54 -41.5t-35.5 -62.5t-13 -79t13 -79.5t35.5 -62.5t54 -41t69.5 -15q37 0 69 15t54.5 41t35.5 62.5t13 79.5zM530 239q0 -48 -16 -93.5t-47 -81.5t-77 -57.5t-107 -21.5q-52 0 -96.5 19t-77 53
t-51 80.5t-18.5 101.5t18.5 101.5t51.5 80.5t77.5 53t97.5 19t98 -19t77.5 -52.5t51 -80.5t18.5 -102zM304 526h-37l-94 122h75z" />
    <glyph glyph-name="oacute" unicode="&#xf3;" horiz-adv-x="570" 
d="M457 239q0 43 -13 79t-35.5 62.5t-54.5 41.5t-69 15q-38 0 -69.5 -15t-54 -41.5t-35.5 -62.5t-13 -79t13 -79.5t35.5 -62.5t54 -41t69.5 -15q37 0 69 15t54.5 41t35.5 62.5t13 79.5zM530 239q0 -48 -16 -93.5t-47 -81.5t-77 -57.5t-107 -21.5q-52 0 -96.5 19t-77 53
t-51 80.5t-18.5 101.5t18.5 101.5t51.5 80.5t77.5 53t97.5 19t98 -19t77.5 -52.5t51 -80.5t18.5 -102zM401 648l-94 -122h-37l56 122h75z" />
    <glyph glyph-name="ocircumflex" unicode="&#xf4;" horiz-adv-x="570" 
d="M457 239q0 43 -13 79t-35.5 62.5t-54.5 41.5t-69 15q-38 0 -69.5 -15t-54 -41.5t-35.5 -62.5t-13 -79t13 -79.5t35.5 -62.5t54 -41t69.5 -15q37 0 69 15t54.5 41t35.5 62.5t13 79.5zM530 239q0 -48 -16 -93.5t-47 -81.5t-77 -57.5t-107 -21.5q-52 0 -96.5 19t-77 53
t-51 80.5t-18.5 101.5t18.5 101.5t51.5 80.5t77.5 53t97.5 19t98 -19t77.5 -52.5t51 -80.5t18.5 -102zM385 529h-33l-76 83l-74 -83h-31l81 123h50z" />
    <glyph glyph-name="otilde" unicode="&#xf5;" horiz-adv-x="570" 
d="M457 239q0 43 -13 79t-35.5 62.5t-54.5 41.5t-69 15q-38 0 -69.5 -15t-54 -41.5t-35.5 -62.5t-13 -79t13 -79.5t35.5 -62.5t54 -41t69.5 -15q37 0 69 15t54.5 41t35.5 62.5t13 79.5zM530 239q0 -48 -16 -93.5t-47 -81.5t-77 -57.5t-107 -21.5q-52 0 -96.5 19t-77 53
t-51 80.5t-18.5 101.5t18.5 101.5t51.5 80.5t77.5 53t97.5 19t98 -19t77.5 -52.5t51 -80.5t18.5 -102zM416 632q0 -42 -16.5 -64t-46.5 -26h-8q-18 0 -39.5 6.5t-34.5 11.5q-12 5 -28.5 10.5t-29.5 5.5h-5q-12 -2 -20 -11.5t-10 -25.5h-22v3v1q0 42 16.5 64.5t46.5 26.5h7
q18 0 39.5 -6.5t34.5 -11.5q12 -5 28.5 -10.5t29.5 -5.5h6q25 3 30 37h22v-3v-2z" />
    <glyph glyph-name="odieresis" unicode="&#xf6;" horiz-adv-x="570" 
d="M457 239q0 43 -13 79t-35.5 62.5t-54.5 41.5t-69 15q-38 0 -69.5 -15t-54 -41.5t-35.5 -62.5t-13 -79t13 -79.5t35.5 -62.5t54 -41t69.5 -15q37 0 69 15t54.5 41t35.5 62.5t13 79.5zM530 239q0 -48 -16 -93.5t-47 -81.5t-77 -57.5t-107 -21.5q-52 0 -96.5 19t-77 53
t-51 80.5t-18.5 101.5t18.5 101.5t51.5 80.5t77.5 53t97.5 19t98 -19t77.5 -52.5t51 -80.5t18.5 -102zM231 587q0 -18 -12 -30.5t-29 -12.5t-29 12.5t-12 30.5t12 30t29 12q18 0 29.5 -12t11.5 -30zM402 587q0 -18 -12 -30.5t-29 -12.5t-29 12.5t-12 30.5t12 30t29 12
t29 -12t12 -30z" />
    <glyph glyph-name="divide" unicode="&#xf7;" horiz-adv-x="562" 
d="M334 74q0 -22 -15.5 -37.5t-37.5 -15.5t-37.5 15.5t-15.5 37.5t15.5 37t37.5 15t37.5 -15t15.5 -37zM512 219h-462v58h462v-58zM334 423q0 -22 -15.5 -37t-37.5 -15t-37.5 15t-15.5 37t15.5 37.5t37.5 15.5t37.5 -15.5t15.5 -37.5z" />
    <glyph glyph-name="oslash" unicode="&#xf8;" horiz-adv-x="574" 
d="M391 398q-21 17 -47.5 27t-56.5 10q-37 0 -68.5 -15t-54.5 -41t-36 -62t-13 -79q0 -41 11.5 -75t31.5 -60zM459 238q0 79 -42 132l-233 -294q44 -36 103 -36q37 0 69 15t54.5 41t35.5 62.5t13 79.5zM531 238q0 -48 -15.5 -93.5t-46.5 -81.5t-77 -57.5t-107 -21.5
q-39 0 -74.5 11.5t-64.5 32.5l-40 -51l-30 24l41 51q-35 34 -54.5 81.5t-19.5 104.5q0 54 18.5 100.5t51.5 80.5t77.5 53t96.5 19q42 0 78 -11.5t65 -32.5l40 50l29 -24l-40 -50q34 -34 53 -81t19 -104z" />
    <glyph glyph-name="ugrave" unicode="&#xf9;" horiz-adv-x="538" 
d="M458 0h-69v63q-32 -44 -72.5 -60.5t-91.5 -16.5q-17 0 -41.5 5.5t-47.5 23.5t-39.5 50.5t-16.5 86.5v324l70 1v-320q0 -52 24 -82.5t77 -30.5q39 0 77 25.5t59 67.5v340h70zM290 526h-37l-94 122h75z" />
    <glyph glyph-name="uacute" unicode="&#xfa;" horiz-adv-x="538" 
d="M458 0h-69v63q-32 -44 -72.5 -60.5t-91.5 -16.5q-17 0 -41.5 5.5t-47.5 23.5t-39.5 50.5t-16.5 86.5v324l70 1v-320q0 -52 24 -82.5t77 -30.5q39 0 77 25.5t59 67.5v340h70zM378 648l-94 -122h-37l56 122h75z" />
    <glyph glyph-name="ucircumflex" unicode="&#xfb;" horiz-adv-x="538" 
d="M458 0h-69v63q-32 -44 -72.5 -60.5t-91.5 -16.5q-17 0 -41.5 5.5t-47.5 23.5t-39.5 50.5t-16.5 86.5v324l70 1v-320q0 -52 24 -82.5t77 -30.5q39 0 77 25.5t59 67.5v340h70zM378 529h-33l-76 83l-74 -83h-31l81 123h50z" />
    <glyph glyph-name="udieresis" unicode="&#xfc;" horiz-adv-x="538" 
d="M458 0h-69v63q-32 -44 -72.5 -60.5t-91.5 -16.5q-17 0 -41.5 5.5t-47.5 23.5t-39.5 50.5t-16.5 86.5v324l70 1v-320q0 -52 24 -82.5t77 -30.5q39 0 77 25.5t59 67.5v340h70zM220 587q0 -18 -12 -30.5t-29 -12.5t-29 12.5t-12 30.5t12 30t29 12t29 -12t12 -30zM390 587
q0 -18 -11.5 -30.5t-28.5 -12.5t-29.5 12.5t-12.5 30.5t12.5 30t29.5 12t28.5 -12t11.5 -30z" />
    <glyph glyph-name="yacute" unicode="&#xfd;" horiz-adv-x="456" 
d="M217 477l-309 -733h-70l139 330l-194 403h82l147 -319l135 319h70zM114 648l-94 -122h-37l56 122h75z" />
    <glyph glyph-name="thorn" unicode="&#xfe;" horiz-adv-x="537" 
d="M424 249q0 47 -13 84.5t-37 63.5q-19 21 -45.5 31.5t-55.5 10.5h-2q-35 -1 -67 -19.5t-54 -44.5v-293q29 -20 55.5 -29t61.5 -9q76 0 115.5 54.5t41.5 144.5v6zM497 246q-1 -46 -14 -91.5t-40.5 -82.5t-71.5 -60.5t-107 -24.5h-5q-34 0 -62.5 8.5t-46.5 22.5v-272h-70
v953h70v-268q27 32 63.5 47.5t72.5 16.5h8q89 0 141 -55q30 -32 46 -78.5t16 -107.5v-8z" />
    <glyph glyph-name="ydieresis" unicode="&#xff;" horiz-adv-x="454" 
d="M444 477l-309 -733h-70l139 330l-194 403h82l147 -319l135 319h70zM184 587q0 -18 -12 -30.5t-29 -12.5t-29 12.5t-12 30.5t12 30t29 12q18 0 29.5 -12t11.5 -30zM355 587q0 -18 -12 -30.5t-29 -12.5t-29 12.5t-12 30.5t12 30t29 12t29 -12t12 -30z" />
    <glyph glyph-name="dotlessi" unicode="&#x131;" horiz-adv-x="230" 
d="M150 0h-70v477h70v-477z" />
    <glyph glyph-name="Lslash" unicode="&#x141;" horiz-adv-x="487" 
d="M454 0h-365v264l-65 -38v67l65 38v368h75v-324l189 112v-67l-189 -112v-248h290v-60z" />
    <glyph glyph-name="lslash" unicode="&#x142;" horiz-adv-x="249" 
d="M221 440l-63 -48v-392h-70v339l-60 -45v47l60 45v313h70v-260l63 48v-47z" />
    <glyph glyph-name="OE" unicode="&#x152;" horiz-adv-x="958" 
d="M534 622q-59 31 -128 31q-59 0 -109.5 -23t-87.5 -63.5t-58 -96t-21 -119.5q0 -65 21 -120t58 -96t87.5 -64t109.5 -23q33 0 66 6.5t62 20.5v547zM910 0h-395q-26 -8 -53.5 -12t-57.5 -4q-86 0 -152 32.5t-111 84.5t-68 117.5t-23 132.5q0 78 27 145.5t75 116.5t113 77
t141 28q32 0 61 -5t57 -14h378v-61h-293v-254h283v-59h-283v-264h301v-61z" />
    <glyph glyph-name="oe" unicode="&#x153;" horiz-adv-x="915" 
d="M456 239q0 43 -13 79t-35.5 62t-54.5 41t-69 15t-68.5 -15t-54.5 -41t-36 -62t-13 -79t13 -79t36 -62.5t54.5 -41t68.5 -14.5t69 14.5t54.5 41t35.5 62.5t13 79zM801 290q-4 70 -38.5 108.5t-90.5 38.5q-54 0 -91.5 -38t-48.5 -109h269zM875 250q0 -3 -0.5 -6.5
t-0.5 -7.5h-348q2 -87 45.5 -137t113.5 -57q6 -1 12 -1h12q38 0 72.5 11t66.5 30l9 -54q-35 -23 -77 -32.5t-91 -9.5q-66 0 -119.5 31.5t-79.5 85.5q-29 -52 -78.5 -84.5t-128.5 -32.5q-52 0 -96.5 19t-77 52.5t-51 80t-18.5 101.5t18.5 101t51.5 80t77.5 53t96.5 19
q67 0 121.5 -30.5t83.5 -84.5q27 54 75.5 84.5t108.5 30.5q45 0 81.5 -14.5t62.5 -43.5q27 -30 42.5 -76t15.5 -108z" />
    <glyph glyph-name="Scaron" unicode="&#x160;" horiz-adv-x="476" 
d="M148 169q-3 -89 -68 -142q-53 -42 -136 -42q-97 0 -166 48v79q36 -36 78 -52t89 -16q57 0 91.5 32t35.5 82v5q0 30 -10 52.5t-29 42t-47.5 38.5t-64.5 42q-27 17 -53 35.5t-46 41.5t-32.5 51t-12.5 64q0 40 14 73.5t40 57t62.5 36.5t81.5 13q87 0 143 -37v-72
q-40 31 -77.5 39.5t-67.5 8.5q-56 0 -88 -28.5t-33 -74.5v-3q0 -26 9 -46t25 -37t37.5 -32t46.5 -31q45 -27 78 -52t55.5 -50.5t33.5 -54t11 -64.5v-7zM73 861l-80 -123h-50l-83 123h33l76 -83l73 83h31z" />
    <glyph glyph-name="scaron" unicode="&#x161;" horiz-adv-x="386" 
d="M142 126q-1 -41 -17.5 -68t-40.5 -43.5t-52.5 -23.5t-54.5 -7q-79 0 -131 32v70q61 -46 133 -46q24 0 41 7t28.5 17.5t17 23.5t6.5 26q1 2 1 8q0 20 -11.5 40t-48.5 39l-81 41q-15 7 -29.5 17.5t-26.5 25t-19 33t-7 42.5v8.5t1 8.5q3 31 18 52.5t36.5 35.5t47 20.5
t49.5 6.5q75 0 119 -29v-63q-48 36 -114 36q-37 0 -59.5 -14t-26.5 -40q-1 -4 -1 -12q0 -24 14 -40.5t36 -27.5q2 -1 13 -6q9 -5 26 -13.5t48 -24.5q17 -9 32.5 -20t27 -26t18.5 -35t7 -46v-5zM114 652l-81 -123h-50l-83 123h33l76 -83l74 83h31z" />
    <glyph glyph-name="Ydieresis" unicode="&#x178;" horiz-adv-x="564" 
d="M553 699l-235 -336v-363h-75v362l-232 337h90l185 -270l185 270h82zM239 800q0 -18 -11.5 -30.5t-28.5 -12.5t-29.5 12.5t-12.5 30.5t12 30t30 12q17 0 28.5 -12t11.5 -30zM410 800q0 -18 -11.5 -30.5t-28.5 -12.5t-29.5 12.5t-12.5 30.5t12 30t30 12q17 0 28.5 -12
t11.5 -30z" />
    <glyph glyph-name="Zcaron" unicode="&#x17d;" horiz-adv-x="582" 
d="M209 0h-502v25l383 612h-374v62h484v-26l-386 -612h395v-61zM74 861l-80 -123h-51l-83 123h33l77 -83l73 83h31z" />
    <glyph glyph-name="zcaron" unicode="&#x17e;" horiz-adv-x="444" 
d="M148 0h-358v16l247 405h-238v56h341v-17l-245 -404h253v-56zM85 652l-81 -123h-50l-83 123h33l76 -83l73 83h32z" />
    <glyph glyph-name="florin" unicode="&#x192;" horiz-adv-x="576" 
d="M532 665q-8 10 -21.5 16t-30.5 7h-3q-14 0 -28.5 -4.5t-28.5 -16.5q-17 -14 -26 -37t-16 -61l-13 -69h112l-7 -44h-112l-91 -520q-11 -62 -25.5 -97t-42.5 -59q-21 -19 -45 -27t-52 -8h-7q-24 1 -38 8t-22 15l9 50q9 -10 22 -16t30 -7h4q13 0 27.5 4.5t29.5 16.5
q17 14 26 37.5t16 61.5l95 541h-87l8 44h86l9 48q11 61 25.5 96.5t41.5 58.5q21 19 45 27t53 8h6q24 -1 38.5 -8t21.5 -15z" />
    <glyph glyph-name="circumflex" unicode="&#x2c6;" horiz-adv-x="260" 
d="M237 529h-33l-77 83l-73 -83h-31l80 123h51z" />
    <glyph glyph-name="caron" unicode="&#x2c7;" horiz-adv-x="260" 
d="M237 652l-81 -123h-50l-83 123h33l76 -83l74 83h31z" />
    <glyph glyph-name="breve" unicode="&#x2d8;" horiz-adv-x="268" 
d="M245 627q0 -48 -31 -77t-80 -29t-80 29t-31 77h39q4 -30 23.5 -44.5t48.5 -14.5t48.5 14.5t24.5 44.5h38z" />
    <glyph glyph-name="dotaccent" unicode="&#x2d9;" horiz-adv-x="138" 
d="M115 579q0 -19 -13.5 -32.5t-32.5 -13.5t-32.5 13.5t-13.5 32.5q0 20 13.5 33.5t32.5 13.5t32.5 -13.5t13.5 -33.5z" />
    <glyph glyph-name="ring" unicode="&#x2da;" horiz-adv-x="194" 
d="M142 591q0 20 -13 34t-32 14t-32 -14t-13 -34t13.5 -34t31.5 -14q19 0 32 14t13 34zM171 591q0 -31 -21.5 -53t-52.5 -22t-52.5 22t-21.5 53t21.5 53t52.5 22t52.5 -22t21.5 -53z" />
    <glyph glyph-name="ogonek" unicode="&#x2db;" horiz-adv-x="225" 
d="M202 -140q-14 -32 -37 -43t-61 -11q-11 0 -25 3.5t-26.5 13t-21 25t-8.5 39.5q0 6 3.5 20.5t15 31.5t32 34.5t53.5 29.5h29q-43 -29 -57.5 -58t-14.5 -55t14 -38.5t31 -12.5t29 9t19 24z" />
    <glyph glyph-name="tilde" unicode="&#x2dc;" horiz-adv-x="306" 
d="M283 632q0 -42 -16.5 -64t-46.5 -26h-7q-18 0 -39.5 6.5t-34.5 11.5q-12 5 -28.5 10.5t-29.5 5.5h-5q-26 -3 -31 -37h-22v3v1q0 42 16.5 64.5t46.5 26.5h8q18 0 39.5 -6.5t34.5 -11.5q12 -5 28.5 -10.5t29.5 -5.5h5q12 2 20 11.5t10 25.5h22v-3v-2v0z" />
    <glyph glyph-name="hungarumlaut" unicode="&#x2dd;" horiz-adv-x="398" 
d="M194 660l-122 -132h-49l77 132h94zM375 660l-122 -132h-49l77 132h94z" />
    <glyph glyph-name="endash" unicode="&#x2013;" horiz-adv-x="500" 
d="M500 252h-500v68h500v-68z" />
    <glyph glyph-name="emdash" unicode="&#x2014;" horiz-adv-x="1000" 
d="M1000 252h-1000v68h1000v-68z" />
    <glyph glyph-name="quoteleft" unicode="&#x2018;" horiz-adv-x="267" 
d="M187 514q0 -25 -16 -38t-35 -13q-22 0 -36 14q-20 20 -20 60q0 52 22 98.5t68 71.5l5 -7q-31 -20 -44.5 -53.5t-13.5 -64.5q0 -6 0.5 -11t1.5 -10q5 2 10 3t10 1q16 0 29 -10q19 -14 19 -41z" />
    <glyph glyph-name="quoteright" unicode="&#x2019;" horiz-adv-x="267" 
d="M187 632q0 -52 -22 -98.5t-68 -70.5l-5 6q31 20 44.5 54t13.5 64q0 6 -0.5 11.5t-1.5 10.5q-9 -4 -20 -4q-19 0 -29 9q-19 14 -19 41q0 25 16 38.5t35 13.5q21 0 36 -15q20 -20 20 -60z" />
    <glyph glyph-name="quotesinglbase" unicode="&#x201a;" horiz-adv-x="267" 
d="M187 25q0 -52 -22 -99t-68 -71l-5 7q31 20 44.5 53.5t13.5 64.5q0 5 -0.5 10.5t-1.5 10.5q-9 -4 -20 -4q-8 0 -16 2.5t-13 6.5q-19 14 -19 41q0 26 16 39t35 13q21 0 36 -15q20 -20 20 -59z" />
    <glyph glyph-name="quotedblleft" unicode="&#x201c;" horiz-adv-x="423" 
d="M187 514q0 -25 -16 -38t-35 -13q-22 0 -36 14q-20 20 -20 60q0 52 22 98.5t68 71.5l5 -7q-31 -20 -44.5 -53.5t-13.5 -64.5q0 -6 0.5 -11t1.5 -10q5 2 10 3t10 1q16 0 29 -10q19 -14 19 -41zM343 514q0 -25 -16 -38t-35 -13q-22 0 -36 14q-20 20 -20 60q0 52 22 98.5
t68 71.5l5 -7q-31 -20 -44.5 -53.5t-13.5 -64.5q0 -6 0.5 -11t1.5 -10q5 2 10 3t10 1q16 0 29 -10q19 -14 19 -41z" />
    <glyph glyph-name="quotedblright" unicode="&#x201d;" horiz-adv-x="423" 
d="M187 632q0 -52 -22 -98.5t-68 -70.5l-5 6q31 20 44.5 54t13.5 64q0 6 -0.5 11.5t-1.5 10.5q-9 -4 -20 -4q-19 0 -29 9q-19 14 -19 41q0 25 16 38.5t35 13.5q21 0 36 -15q20 -20 20 -60zM343 632q0 -52 -22 -98.5t-68 -70.5l-5 6q31 20 44.5 54t13.5 64q0 6 -0.5 11.5
t-1.5 10.5q-9 -4 -20 -4q-19 0 -29 9q-19 14 -19 41q0 25 16 38.5t35 13.5q21 0 36 -15q20 -20 20 -60z" />
    <glyph glyph-name="quotedblbase" unicode="&#x201e;" horiz-adv-x="423" 
d="M187 25q0 -52 -22 -99t-68 -71l-5 7q31 20 44.5 53.5t13.5 64.5q0 5 -0.5 10.5t-1.5 10.5q-9 -4 -20 -4q-8 0 -16 2.5t-13 6.5q-19 14 -19 41q0 26 16 39t35 13q20 0 36 -14q20 -22 20 -60zM343 25q0 -52 -22 -99t-68 -71l-5 7q31 20 44.5 53.5t13.5 64.5q0 5 -0.5 10.5
t-1.5 10.5q-9 -4 -20 -4q-8 0 -16 2.5t-13 6.5q-19 14 -19 41q0 26 16 39t35 13q20 0 36 -14q20 -22 20 -60z" />
    <glyph glyph-name="dagger" unicode="&#x2020;" horiz-adv-x="547" 
d="M482 404l-191 16l18 -652h-71l18 651l-191 -15v58l191 -16l-18 254h71l-18 -254l191 16v-58z" />
    <glyph glyph-name="daggerdbl" unicode="&#x2021;" horiz-adv-x="545" 
d="M480 8l-190 16l18 -257h-70l18 256l-191 -15v57l190 -15q-5 49 -7.5 84t-3.5 57q-2 26 -1 42q-1 19 1 45q1 23 3.5 57t7.5 82l-190 -15v57l190 -15l-17 255h70l-18 -255l190 15v-57l-189 16q5 -49 6.5 -83.5t3.5 -57.5q1 -26 2 -44q-1 -18 -2 -44q-2 -23 -3.5 -57
t-6.5 -82l189 15v-57z" />
    <glyph glyph-name="bullet" unicode="&#x2022;" horiz-adv-x="301" 
d="M241 273q0 -38 -26.5 -64.5t-64.5 -26.5q-37 0 -63.5 26.5t-26.5 64.5t26.5 64t63.5 26q38 0 64.5 -26t26.5 -64z" />
    <glyph glyph-name="ellipsis" unicode="&#x2026;" horiz-adv-x="741" 
d="M164 46q0 -22 -15 -37.5t-37 -15.5t-37 15.5t-15 37.5t15 37t37 15t37 -15t15 -37zM423 46q0 -22 -15 -37.5t-37 -15.5t-37 15.5t-15 37.5t15 37t37 15t37 -15t15 -37zM681 46q0 -22 -15 -37.5t-37 -15.5t-37 15.5t-15 37.5t15 37t37 15t37 -15t15 -37z" />
    <glyph glyph-name="perthousand" unicode="&#x2030;" horiz-adv-x="1082" 
d="M284 515q0 72 -23 114t-64 42q-40 0 -63.5 -42t-23.5 -114q0 -73 23.5 -114.5t63.5 -41.5q41 0 64 41.5t23 114.5zM645 188q0 73 -23 114.5t-64 41.5q-40 0 -63.5 -41.5t-23.5 -114.5q0 -72 23.5 -114t63.5 -42q41 0 64 42t23 114zM972 188q0 73 -23 114.5t-64 41.5
q-40 0 -63.5 -41.5t-23.5 -114.5q0 -72 23.5 -114t63.5 -42q41 0 64 42t23 114zM334 515q0 -45 -10 -81.5t-28 -62.5t-43 -40t-56 -14t-56 14t-43 40t-28 62.5t-10 81.5q0 44 10 80.5t28 62.5t43 40t56 14t56 -14t43 -40t28 -62.5t10 -80.5zM600 704l-401 -707h-46l402 707
h45zM695 188q0 -44 -10 -80.5t-28 -62.5t-43 -40t-56 -14t-56 14t-43 40t-28 62.5t-10 80.5t10 80.5t28 62.5t43 40.5t56 14.5t56 -14.5t43 -40.5t28 -62.5t10 -80.5zM1022 188q0 -44 -10 -80.5t-28 -62.5t-43 -40t-56 -14t-56 14t-43 40t-28 62.5t-10 80.5t10 80.5t28 62.5
t43 40.5t56 14.5t56 -14.5t43 -40.5t28 -62.5t10 -80.5z" />
    <glyph glyph-name="guilsinglleft" unicode="&#x2039;" horiz-adv-x="254" 
d="M224 0h-60l-134 227l134 228h60l-119 -228z" />
    <glyph glyph-name="guilsinglright" unicode="&#x203a;" horiz-adv-x="254" 
d="M224 227l-133 -227h-61l120 227l-120 228h61z" />
    <glyph glyph-name="fraction" unicode="&#x2044;" horiz-adv-x="119" 
d="M279 700l-394 -699h-45l394 699h45z" />
    <glyph glyph-name="trademark" unicode="&#x2122;" horiz-adv-x="829" 
d="M357 666h-97v-288h-39v288h-98v33h234v-33zM706 378h-39v256l-100 -154h-15l-99 154v-256h-38v321h41l107 -168l107 168h36v-321z" />
    <glyph glyph-name="minus" unicode="&#x2212;" horiz-adv-x="557" 
d="M507 220h-457v57h457v-57z" />
    <glyph glyph-name="infinity" unicode="&#x221e;" horiz-adv-x="758" 
d="M353 345q-44 44 -81.5 72t-83.5 28q-42 0 -69.5 -28t-27.5 -72t27.5 -72t69.5 -28q46 0 83.5 28t81.5 72zM667 345q0 44 -27.5 72t-70.5 28q-45 0 -83 -28t-81 -72q43 -44 81 -72t83 -28q43 0 70.5 28t27.5 72zM708 345q0 -33 -12.5 -59t-32 -43t-45 -26t-50.5 -9
q-26 0 -49 7t-45.5 21t-45.5 34.5t-49 48.5q-26 -28 -49 -48.5t-45.5 -34.5t-45.5 -21t-50 -7q-25 0 -50 9t-44.5 26t-32 43t-12.5 59t12.5 59t32 43t44.5 26t50 9q27 0 50 -7t45.5 -20.5t45.5 -34.5t49 -48q26 27 49 48t45.5 34.5t45.5 20.5t49 7q25 0 50.5 -9t45 -26
t32 -43t12.5 -59z" />
    <glyph glyph-name="notequal" unicode="&#x2260;" horiz-adv-x="560" 
d="M510 165h-276l-88 -139l-41 28l71 111h-126v58h162l77 123h-239v58h275l88 139l41 -28l-71 -111h127v-58h-163l-77 -123h240v-58z" />
    <glyph glyph-name="lessequal" unicode="&#x2264;" horiz-adv-x="558" 
d="M508 0h-458v57h458v-57zM508 145l-458 218v51l458 218v-60l-390 -184l390 -183v-60z" />
    <glyph glyph-name="greaterequal" unicode="&#x2265;" horiz-adv-x="557" 
d="M507 0h-457v57h457v-57zM507 363l-457 -218v60l389 183l-389 184v60l457 -218v-51z" />
    <glyph glyph-name="lozenge" unicode="&#x25ca;" horiz-adv-x="1525" 
 />
    <glyph glyph-name="uniFB01" unicode="&#xfb01;" horiz-adv-x="516" 
d="M350 641q-10 6 -27 11.5t-37 5.5q-15 0 -35 -4t-40 -18q-23 -18 -33.5 -45t-10.5 -67v-47h117v-57h-117v-420h-70v420h-72v57h72v34q0 64 18.5 101t44.5 60q26 22 56.5 32t64.5 10q23 0 40.5 -4.5t28.5 -11.5v-57zM436 0h-71v476l71 1v-477z" />
    <glyph glyph-name="uniFB02" unicode="&#xfb02;" horiz-adv-x="514" 
d="M434 0h-70v641q-16 8 -35.5 12.5t-46.5 4.5q-22 0 -44.5 -8.5t-36.5 -21.5q-16 -15 -25 -39t-9 -64v-48h117v-57h-117v-420h-70v420h-72v57h72v34q0 32 3 55t9 41t15.5 31.5t23.5 27.5q26 25 63 36.5t71 11.5q94 0 152 -35v-679z" />
    </font>
</defs>
</svg>
